<?xml version="1.0" encoding="UTF-8" standalone="no"?>
<!DOCTYPE svg PUBLIC "-//W3C//DTD SVG 1.1//EN"
 "http://www.w3.org/Graphics/SVG/1.1/DTD/svg11.dtd">
<!-- Generated by graphviz version 2.36.0 (20140111.2315)
 -->
<!-- Title: de.flashpixx.rrd_antlr4.antlr.IGrammarElement Pages: 1 -->
<!--zoomable 610 -->
<svg id="main" version="1.1" xmlns="http://www.w3.org/2000/svg" xmlns:xlink="http://www.w3.org/1999/xlink" xml:space="preserve" onload="init(evt)">
<style type="text/css"><![CDATA[
.edge:hover path { stroke: red; }
.edge:hover polygon { stroke: red; fill: red; }
]]></style>
<script type="text/javascript"><![CDATA[
var edges = document.getElementsByTagName('g');
if (edges && edges.length) {
  for (var i=0;i<edges.length;i++) {
    if (edges[i].id.substr(0,4)=='edge') {
      edges[i].setAttribute('class','edge');
    }
  }
}
]]></script>
        <defs>
                <circle id="rim" cx="0" cy="0" r="7"/>
                <circle id="rim2" cx="0" cy="0" r="3.5"/>
                <g id="zoomPlus">
                        <use xlink:href="#rim" fill="#404040">
                                <set attributeName="fill" to="#808080" begin="zoomplus.mouseover" end="zoomplus.mouseout"/>
                        </use>
                        <path d="M-4,0h8M0,-4v8" fill="none" stroke="white" stroke-width="1.5" pointer-events="none"/>
                </g>
                <g id="zoomMin">
                        <use xlink:href="#rim" fill="#404040">
                                <set attributeName="fill" to="#808080" begin="zoomminus.mouseover" end="zoomminus.mouseout"/>
                        </use>
                        <path d="M-4,0h8" fill="none" stroke="white" stroke-width="1.5" pointer-events="none"/>
                </g>
                <g id="dirArrow">
                        <path fill="none" stroke="white" stroke-width="1.5" d="M0,-3.0v7 M-2.5,-0.5L0,-3.0L2.5,-0.5"/>
                </g>
               <g id="resetDef">
                       <use xlink:href="#rim2" fill="#404040">
                               <set attributeName="fill" to="#808080" begin="reset.mouseover" end="reset.mouseout"/>
                       </use>
               </g>
        </defs>

<script type="text/javascript">
var viewWidth = 1496;
var viewHeight = 610;
var sectionId = 'dynsection-0';
</script>
<script xlink:href="../../svgpan.js"/>
<svg id="graph" class="graph">
<g id="viewport">
<title>de.flashpixx.rrd_antlr4.antlr.IGrammarElement</title>
<!-- Node1 -->
<g id="node1" class="node"><title>Node1</title>
<polygon fill="#bfbfbf" stroke="black" points="1050,-527 1050,-601 1180,-601 1180,-527 1050,-527"/>
<text text-anchor="start" x="1058" y="-589.8" font-family="Helvetica,sans-Serif" font-size="9.00">de.flashpixx.rrd_antlr4.antlr.</text>
<text text-anchor="middle" x="1115" y="-579.8" font-family="Helvetica,sans-Serif" font-size="9.00">IGrammarElement</text>
<polyline fill="none" stroke="black" points="1050,-573 1180,-573 "/>
<text text-anchor="middle" x="1115" y="-561.8" font-family="Helvetica,sans-Serif" font-size="9.00"> </text>
<polyline fill="none" stroke="black" points="1050,-555 1180,-555 "/>
<text text-anchor="start" x="1058" y="-543.8" font-family="Helvetica,sans-Serif" font-size="9.00">+ cardinality()</text>
<text text-anchor="start" x="1058" y="-533.8" font-family="Helvetica,sans-Serif" font-size="9.00">+ cardinality()</text>
</g>
<!-- Node2 -->
<g id="node2" class="node"><title>Node2</title>
<g id="a_node2"><a xlink:href="../../da/dbc/interfacede_1_1flashpixx_1_1rrd__antlr4_1_1antlr_1_1IGrammarCollection.html" target="_top" xlink:title="interface of grammar collection elements ">
<polygon fill="none" stroke="black" points="308,-420 308,-484 438,-484 438,-420 308,-420"/>
<text text-anchor="start" x="316" y="-472.8" font-family="Helvetica,sans-Serif" font-size="9.00">de.flashpixx.rrd_antlr4.antlr.</text>
<text text-anchor="middle" x="373" y="-462.8" font-family="Helvetica,sans-Serif" font-size="9.00">IGrammarCollection</text>
<polyline fill="none" stroke="black" points="308,-456 438,-456 "/>
<text text-anchor="middle" x="373" y="-444.8" font-family="Helvetica,sans-Serif" font-size="9.00"> </text>
<polyline fill="none" stroke="black" points="308,-438 438,-438 "/>
<text text-anchor="start" x="316" y="-426.8" font-family="Helvetica,sans-Serif" font-size="9.00">+ get()</text>
</a>
</g>
</g>
<!-- Node1&#45;&gt;Node2 -->
<g id="edge1" class="edge"><title>Node1&#45;&gt;Node2</title>
<path fill="none" stroke="midnightblue" d="M1039.6,-551.823C893.753,-530.201 575.281,-482.988 438.049,-462.643"/>
<polygon fill="none" stroke="midnightblue" points="1039.4,-555.33 1049.8,-553.335 1040.42,-548.406 1039.4,-555.33"/>
</g>
<!-- Node9 -->
<g id="node9" class="node"><title>Node9</title>
<g id="a_node9"><a xlink:href="../../df/ddb/interfacede_1_1flashpixx_1_1rrd__antlr4_1_1antlr_1_1IGrammarComplexElement.html" target="_top" xlink:title="base interface of a complex grammar element ">
<polygon fill="none" stroke="black" points="828,-415 828,-489 958,-489 958,-415 828,-415"/>
<text text-anchor="start" x="836" y="-477.8" font-family="Helvetica,sans-Serif" font-size="9.00">de.flashpixx.rrd_antlr4.antlr.</text>
<text text-anchor="middle" x="893" y="-467.8" font-family="Helvetica,sans-Serif" font-size="9.00">IGrammarComplexElement</text>
<polyline fill="none" stroke="black" points="828,-461 958,-461 "/>
<text text-anchor="middle" x="893" y="-449.8" font-family="Helvetica,sans-Serif" font-size="9.00"> </text>
<polyline fill="none" stroke="black" points="828,-443 958,-443 "/>
<text text-anchor="start" x="836" y="-431.8" font-family="Helvetica,sans-Serif" font-size="9.00">+ documentation()</text>
<text text-anchor="start" x="836" y="-421.8" font-family="Helvetica,sans-Serif" font-size="9.00">+ id()</text>
</a>
</g>
</g>
<!-- Node1&#45;&gt;Node9 -->
<g id="edge10" class="edge"><title>Node1&#45;&gt;Node9</title>
<path fill="none" stroke="midnightblue" d="M1040.59,-526.129C1013.87,-512.891 983.971,-498.076 958.106,-485.26"/>
<polygon fill="none" stroke="midnightblue" points="1039.38,-529.436 1049.89,-530.74 1042.49,-523.164 1039.38,-529.436"/>
</g>
<!-- Node15 -->
<g id="node15" class="node"><title>Node15</title>
<g id="a_node15"><a xlink:href="../../dc/d3e/interfacede_1_1flashpixx_1_1rrd__antlr4_1_1antlr_1_1IGrammarGroup.html" target="_top" xlink:title="any grammar element group ">
<polygon fill="none" stroke="black" points="1050,-420 1050,-484 1180,-484 1180,-420 1050,-420"/>
<text text-anchor="start" x="1058" y="-472.8" font-family="Helvetica,sans-Serif" font-size="9.00">de.flashpixx.rrd_antlr4.antlr.</text>
<text text-anchor="middle" x="1115" y="-462.8" font-family="Helvetica,sans-Serif" font-size="9.00">IGrammarGroup</text>
<polyline fill="none" stroke="black" points="1050,-456 1180,-456 "/>
<text text-anchor="middle" x="1115" y="-444.8" font-family="Helvetica,sans-Serif" font-size="9.00"> </text>
<polyline fill="none" stroke="black" points="1050,-438 1180,-438 "/>
<text text-anchor="start" x="1058" y="-426.8" font-family="Helvetica,sans-Serif" font-size="9.00">+ element()</text>
</a>
</g>
</g>
<!-- Node1&#45;&gt;Node15 -->
<g id="edge16" class="edge"><title>Node1&#45;&gt;Node15</title>
<path fill="none" stroke="midnightblue" d="M1115,-516.706C1115,-505.776 1115,-494.376 1115,-484.292"/>
<polygon fill="none" stroke="midnightblue" points="1111.5,-516.982 1115,-526.982 1118.5,-516.982 1111.5,-516.982"/>
</g>
<!-- Node17 -->
<g id="node17" class="node"><title>Node17</title>
<g id="a_node17"><a xlink:href="../../de/d81/interfacede_1_1flashpixx_1_1rrd__antlr4_1_1antlr_1_1IGrammarNegation.html" target="_top" xlink:title="a negation element ">
<polygon fill="none" stroke="black" points="1198,-420 1198,-484 1328,-484 1328,-420 1198,-420"/>
<text text-anchor="start" x="1206" y="-472.8" font-family="Helvetica,sans-Serif" font-size="9.00">de.flashpixx.rrd_antlr4.antlr.</text>
<text text-anchor="middle" x="1263" y="-462.8" font-family="Helvetica,sans-Serif" font-size="9.00">IGrammarNegation</text>
<polyline fill="none" stroke="black" points="1198,-456 1328,-456 "/>
<text text-anchor="middle" x="1263" y="-444.8" font-family="Helvetica,sans-Serif" font-size="9.00"> </text>
<polyline fill="none" stroke="black" points="1198,-438 1328,-438 "/>
<text text-anchor="start" x="1206" y="-426.8" font-family="Helvetica,sans-Serif" font-size="9.00">+ inner()</text>
</a>
</g>
</g>
<!-- Node1&#45;&gt;Node17 -->
<g id="edge18" class="edge"><title>Node1&#45;&gt;Node17</title>
<path fill="none" stroke="midnightblue" d="M1171.86,-520.737C1188.17,-508.617 1205.65,-495.624 1220.9,-484.292"/>
<polygon fill="none" stroke="midnightblue" points="1169.4,-518.208 1163.46,-526.982 1173.57,-523.826 1169.4,-518.208"/>
</g>
<!-- Node19 -->
<g id="node19" class="node"><title>Node19</title>
<g id="a_node19"><a xlink:href="../../df/d14/interfacede_1_1flashpixx_1_1rrd__antlr4_1_1antlr_1_1IGrammarSimpleElement_3_01T_01_4.html" target="_top" xlink:title="a simple grammar element ">
<polygon fill="none" stroke="black" points="1346,-415 1346,-489 1486,-489 1486,-415 1346,-415"/>
<text text-anchor="start" x="1354" y="-477.8" font-family="Helvetica,sans-Serif" font-size="9.00">de.flashpixx.rrd_antlr4.antlr.</text>
<text text-anchor="middle" x="1416" y="-467.8" font-family="Helvetica,sans-Serif" font-size="9.00">IGrammarSimpleElement&lt; T &gt;</text>
<polyline fill="none" stroke="black" points="1346,-461 1486,-461 "/>
<text text-anchor="middle" x="1416" y="-449.8" font-family="Helvetica,sans-Serif" font-size="9.00"> </text>
<polyline fill="none" stroke="black" points="1346,-443 1486,-443 "/>
<text text-anchor="start" x="1354" y="-431.8" font-family="Helvetica,sans-Serif" font-size="9.00">+ get()</text>
<text text-anchor="start" x="1354" y="-421.8" font-family="Helvetica,sans-Serif" font-size="9.00">+ isValueAssignableTo()</text>
</a>
</g>
</g>
<!-- Node1&#45;&gt;Node19 -->
<g id="edge20" class="edge"><title>Node1&#45;&gt;Node19</title>
<path fill="none" stroke="midnightblue" d="M1189.97,-540.816C1233.38,-527.361 1288.79,-509.134 1337,-490 1339.96,-488.827 1342.96,-487.597 1345.98,-486.328"/>
<polygon fill="none" stroke="midnightblue" points="1188.86,-537.495 1180.34,-543.786 1190.92,-544.185 1188.86,-537.495"/>
</g>
<!-- Node3 -->
<g id="node3" class="node"><title>Node3</title>
<g id="a_node3"><a xlink:href="../../d5/d4c/classde_1_1flashpixx_1_1rrd__antlr4_1_1antlr_1_1CGrammarEmptyCollection.html" target="_top" xlink:title="empty grammar collection ">
<polygon fill="none" stroke="black" points="0,-238 0,-362 140,-362 140,-238 0,-238"/>
<text text-anchor="start" x="8" y="-350.8" font-family="Helvetica,sans-Serif" font-size="9.00">de.flashpixx.rrd_antlr4.antlr.</text>
<text text-anchor="middle" x="70" y="-340.8" font-family="Helvetica,sans-Serif" font-size="9.00">CGrammarEmptyCollection</text>
<polyline fill="none" stroke="black" points="0,-334 140,-334 "/>
<text text-anchor="start" x="8" y="-322.8" font-family="Helvetica,sans-Serif" font-size="9.00">&#45; INSTANCE</text>
<polyline fill="none" stroke="black" points="0,-316 140,-316 "/>
<text text-anchor="start" x="8" y="-304.8" font-family="Helvetica,sans-Serif" font-size="9.00">+ cardinality()</text>
<text text-anchor="start" x="8" y="-294.8" font-family="Helvetica,sans-Serif" font-size="9.00">+ cardinality()</text>
<text text-anchor="start" x="8" y="-284.8" font-family="Helvetica,sans-Serif" font-size="9.00">+ equals()</text>
<text text-anchor="start" x="8" y="-274.8" font-family="Helvetica,sans-Serif" font-size="9.00">+ get()</text>
<text text-anchor="start" x="8" y="-264.8" font-family="Helvetica,sans-Serif" font-size="9.00">+ hashCode()</text>
<text text-anchor="start" x="8" y="-254.8" font-family="Helvetica,sans-Serif" font-size="9.00">+ toString()</text>
<text text-anchor="start" x="8" y="-244.8" font-family="Helvetica,sans-Serif" font-size="9.00">&#45; CGrammarEmptyCollection()</text>
</a>
</g>
</g>
<!-- Node2&#45;&gt;Node3 -->
<g id="edge2" class="edge"><title>Node2&#45;&gt;Node3</title>
<path fill="none" stroke="midnightblue" d="M298.107,-435.706C252.751,-424.291 194.979,-405.799 149,-378 141.461,-373.442 134.08,-368.035 127.045,-362.233"/>
<polygon fill="none" stroke="midnightblue" points="297.335,-439.121 307.881,-438.106 299.004,-432.323 297.335,-439.121"/>
</g>
<!-- Node4 -->
<g id="node4" class="node"><title>Node4</title>
<g id="a_node4"><a xlink:href="../../d1/de6/classde_1_1flashpixx_1_1rrd__antlr4_1_1antlr_1_1IGrammarBaseCollection.html" target="_top" xlink:title="abstract class for collection ">
<polygon fill="none" stroke="black" points="306.5,-238 306.5,-362 439.5,-362 439.5,-238 306.5,-238"/>
<text text-anchor="start" x="314.5" y="-350.8" font-family="Helvetica,sans-Serif" font-size="9.00">de.flashpixx.rrd_antlr4.antlr.</text>
<text text-anchor="middle" x="373" y="-340.8" font-family="Helvetica,sans-Serif" font-size="9.00">IGrammarBaseCollection</text>
<polyline fill="none" stroke="black" points="306.5,-334 439.5,-334 "/>
<text text-anchor="start" x="314.5" y="-322.8" font-family="Helvetica,sans-Serif" font-size="9.00"># m_cardinality</text>
<text text-anchor="start" x="314.5" y="-312.8" font-family="Helvetica,sans-Serif" font-size="9.00"># m_data</text>
<polyline fill="none" stroke="black" points="306.5,-306 439.5,-306 "/>
<text text-anchor="start" x="314.5" y="-294.8" font-family="Helvetica,sans-Serif" font-size="9.00">+ cardinality()</text>
<text text-anchor="start" x="314.5" y="-284.8" font-family="Helvetica,sans-Serif" font-size="9.00">+ cardinality()</text>
<text text-anchor="start" x="314.5" y="-274.8" font-family="Helvetica,sans-Serif" font-size="9.00">+ equals()</text>
<text text-anchor="start" x="314.5" y="-264.8" font-family="Helvetica,sans-Serif" font-size="9.00">+ get()</text>
<text text-anchor="start" x="314.5" y="-254.8" font-family="Helvetica,sans-Serif" font-size="9.00">+ hashCode()</text>
<text text-anchor="start" x="314.5" y="-244.8" font-family="Helvetica,sans-Serif" font-size="9.00"># IGrammarBaseCollection()</text>
</a>
</g>
</g>
<!-- Node2&#45;&gt;Node4 -->
<g id="edge3" class="edge"><title>Node2&#45;&gt;Node4</title>
<path fill="none" stroke="midnightblue" d="M373,-409.643C373,-394.942 373,-378.066 373,-362.067"/>
<polygon fill="none" stroke="midnightblue" points="369.5,-409.92 373,-419.92 376.5,-409.92 369.5,-409.92"/>
</g>
<!-- Node7 -->
<g id="node7" class="node"><title>Node7</title>
<g id="a_node7"><a xlink:href="../../de/db0/interfacede_1_1flashpixx_1_1rrd__antlr4_1_1antlr_1_1IGrammarChoice.html" target="_top" xlink:title="grammar element sequence ">
<polygon fill="none" stroke="black" points="158,-268 158,-332 288,-332 288,-268 158,-268"/>
<text text-anchor="start" x="166" y="-320.8" font-family="Helvetica,sans-Serif" font-size="9.00">de.flashpixx.rrd_antlr4.antlr.</text>
<text text-anchor="middle" x="223" y="-310.8" font-family="Helvetica,sans-Serif" font-size="9.00">IGrammarChoice</text>
<polyline fill="none" stroke="black" points="158,-304 288,-304 "/>
<text text-anchor="middle" x="223" y="-292.8" font-family="Helvetica,sans-Serif" font-size="9.00"> </text>
<polyline fill="none" stroke="black" points="158,-286 288,-286 "/>
<text text-anchor="middle" x="223" y="-274.8" font-family="Helvetica,sans-Serif" font-size="9.00"> </text>
</a>
</g>
</g>
<!-- Node2&#45;&gt;Node7 -->
<g id="edge6" class="edge"><title>Node2&#45;&gt;Node7</title>
<path fill="none" stroke="midnightblue" d="M332.388,-412.568C320.86,-401.503 308.356,-389.353 297,-378 282.183,-363.187 266.029,-346.449 252.605,-332.371"/>
<polygon fill="none" stroke="midnightblue" points="330.157,-415.278 339.802,-419.664 334.998,-410.221 330.157,-415.278"/>
</g>
<!-- Node8 -->
<g id="node8" class="node"><title>Node8</title>
<g id="a_node8"><a xlink:href="../../d8/d61/interfacede_1_1flashpixx_1_1rrd__antlr4_1_1antlr_1_1IGrammarSequence.html" target="_top" xlink:title="grammar element sequence ">
<polygon fill="none" stroke="black" points="458,-268 458,-332 588,-332 588,-268 458,-268"/>
<text text-anchor="start" x="466" y="-320.8" font-family="Helvetica,sans-Serif" font-size="9.00">de.flashpixx.rrd_antlr4.antlr.</text>
<text text-anchor="middle" x="523" y="-310.8" font-family="Helvetica,sans-Serif" font-size="9.00">IGrammarSequence</text>
<polyline fill="none" stroke="black" points="458,-304 588,-304 "/>
<text text-anchor="middle" x="523" y="-292.8" font-family="Helvetica,sans-Serif" font-size="9.00"> </text>
<polyline fill="none" stroke="black" points="458,-286 588,-286 "/>
<text text-anchor="middle" x="523" y="-274.8" font-family="Helvetica,sans-Serif" font-size="9.00"> </text>
</a>
</g>
</g>
<!-- Node2&#45;&gt;Node8 -->
<g id="edge8" class="edge"><title>Node2&#45;&gt;Node8</title>
<path fill="none" stroke="midnightblue" d="M412.665,-412.777C424.128,-401.627 436.615,-389.381 448,-378 462.914,-363.092 479.274,-346.342 492.899,-332.281"/>
<polygon fill="none" stroke="midnightblue" points="410.038,-410.449 405.302,-419.926 414.914,-415.471 410.038,-410.449"/>
</g>
<!-- Node5 -->
<g id="node5" class="node"><title>Node5</title>
<g id="a_node5"><a xlink:href="../../df/d2c/classde_1_1flashpixx_1_1rrd__antlr4_1_1antlr_1_1CGrammarChoice.html" target="_top" xlink:title="grammar choice ">
<polygon fill="none" stroke="black" points="233,-46 233,-140 363,-140 363,-46 233,-46"/>
<text text-anchor="start" x="241" y="-128.8" font-family="Helvetica,sans-Serif" font-size="9.00">de.flashpixx.rrd_antlr4.antlr.</text>
<text text-anchor="middle" x="298" y="-118.8" font-family="Helvetica,sans-Serif" font-size="9.00">CGrammarChoice</text>
<polyline fill="none" stroke="black" points="233,-112 363,-112 "/>
<text text-anchor="middle" x="298" y="-100.8" font-family="Helvetica,sans-Serif" font-size="9.00"> </text>
<polyline fill="none" stroke="black" points="233,-94 363,-94 "/>
<text text-anchor="start" x="241" y="-82.8" font-family="Helvetica,sans-Serif" font-size="9.00">+ CGrammarChoice()</text>
<text text-anchor="start" x="241" y="-72.8" font-family="Helvetica,sans-Serif" font-size="9.00">+ CGrammarChoice()</text>
<text text-anchor="start" x="241" y="-62.8" font-family="Helvetica,sans-Serif" font-size="9.00">+ CGrammarChoice()</text>
<text text-anchor="start" x="241" y="-52.8" font-family="Helvetica,sans-Serif" font-size="9.00">+ toString()</text>
</a>
</g>
</g>
<!-- Node4&#45;&gt;Node5 -->
<g id="edge4" class="edge"><title>Node4&#45;&gt;Node5</title>
<path fill="none" stroke="midnightblue" d="M347.05,-228.07C336.413,-198.994 324.401,-166.163 314.927,-140.267"/>
<polygon fill="none" stroke="midnightblue" points="343.876,-229.582 350.599,-237.771 350.45,-227.177 343.876,-229.582"/>
</g>
<!-- Node6 -->
<g id="node6" class="node"><title>Node6</title>
<g id="a_node6"><a xlink:href="../../dc/df3/classde_1_1flashpixx_1_1rrd__antlr4_1_1antlr_1_1CGrammarSequence.html" target="_top" xlink:title="grammar sequence ">
<polygon fill="none" stroke="black" points="382,-46 382,-140 512,-140 512,-46 382,-46"/>
<text text-anchor="start" x="390" y="-128.8" font-family="Helvetica,sans-Serif" font-size="9.00">de.flashpixx.rrd_antlr4.antlr.</text>
<text text-anchor="middle" x="447" y="-118.8" font-family="Helvetica,sans-Serif" font-size="9.00">CGrammarSequence</text>
<polyline fill="none" stroke="black" points="382,-112 512,-112 "/>
<text text-anchor="middle" x="447" y="-100.8" font-family="Helvetica,sans-Serif" font-size="9.00"> </text>
<polyline fill="none" stroke="black" points="382,-94 512,-94 "/>
<text text-anchor="start" x="390" y="-82.8" font-family="Helvetica,sans-Serif" font-size="9.00">+ CGrammarSequence()</text>
<text text-anchor="start" x="390" y="-72.8" font-family="Helvetica,sans-Serif" font-size="9.00">+ CGrammarSequence()</text>
<text text-anchor="start" x="390" y="-62.8" font-family="Helvetica,sans-Serif" font-size="9.00">+ CGrammarSequence()</text>
<text text-anchor="start" x="390" y="-52.8" font-family="Helvetica,sans-Serif" font-size="9.00">+ toString()</text>
</a>
</g>
</g>
<!-- Node4&#45;&gt;Node6 -->
<g id="edge5" class="edge"><title>Node4&#45;&gt;Node6</title>
<path fill="none" stroke="midnightblue" d="M398.604,-228.07C409.1,-198.994 420.951,-166.163 430.299,-140.267"/>
<polygon fill="none" stroke="midnightblue" points="395.206,-227.177 395.102,-237.771 401.79,-229.553 395.206,-227.177"/>
</g>
<!-- Node7&#45;&gt;Node5 -->
<g id="edge7" class="edge"><title>Node7&#45;&gt;Node5</title>
<path fill="none" stroke="midnightblue" d="M237.911,-258.242C250.354,-224.231 268.086,-175.765 281.063,-140.296"/>
<polygon fill="none" stroke="midnightblue" points="234.54,-257.271 234.391,-267.865 241.114,-259.676 234.54,-257.271"/>
</g>
<!-- Node8&#45;&gt;Node6 -->
<g id="edge9" class="edge"><title>Node8&#45;&gt;Node6</title>
<path fill="none" stroke="midnightblue" d="M507.89,-258.242C495.281,-224.231 477.313,-175.765 464.163,-140.296"/>
<polygon fill="none" stroke="midnightblue" points="504.699,-259.705 511.457,-267.865 511.263,-257.272 504.699,-259.705"/>
</g>
<!-- Node10 -->
<g id="node10" class="node"><title>Node10</title>
<g id="a_node10"><a xlink:href="../../d7/d65/classde_1_1flashpixx_1_1rrd__antlr4_1_1antlr_1_1CGrammar.html" target="_top" xlink:title="grammar information ">
<polygon fill="none" stroke="black" points="606,-228 606,-372 736,-372 736,-228 606,-228"/>
<text text-anchor="start" x="614" y="-360.8" font-family="Helvetica,sans-Serif" font-size="9.00">de.flashpixx.rrd_antlr4.antlr.</text>
<text text-anchor="middle" x="671" y="-350.8" font-family="Helvetica,sans-Serif" font-size="9.00">CGrammar</text>
<polyline fill="none" stroke="black" points="606,-344 736,-344 "/>
<text text-anchor="start" x="614" y="-332.8" font-family="Helvetica,sans-Serif" font-size="9.00">&#45; m_documentation</text>
<text text-anchor="start" x="614" y="-322.8" font-family="Helvetica,sans-Serif" font-size="9.00">&#45; m_id</text>
<polyline fill="none" stroke="black" points="606,-316 736,-316 "/>
<text text-anchor="start" x="614" y="-304.8" font-family="Helvetica,sans-Serif" font-size="9.00">+ cardinality()</text>
<text text-anchor="start" x="614" y="-294.8" font-family="Helvetica,sans-Serif" font-size="9.00">+ cardinality()</text>
<text text-anchor="start" x="614" y="-284.8" font-family="Helvetica,sans-Serif" font-size="9.00">+ documentation()</text>
<text text-anchor="start" x="614" y="-274.8" font-family="Helvetica,sans-Serif" font-size="9.00">+ equals()</text>
<text text-anchor="start" x="614" y="-264.8" font-family="Helvetica,sans-Serif" font-size="9.00">+ hashCode()</text>
<text text-anchor="start" x="614" y="-254.8" font-family="Helvetica,sans-Serif" font-size="9.00">+ id()</text>
<text text-anchor="start" x="614" y="-244.8" font-family="Helvetica,sans-Serif" font-size="9.00">+ toString()</text>
<text text-anchor="start" x="614" y="-234.8" font-family="Helvetica,sans-Serif" font-size="9.00">~ CGrammar()</text>
</a>
</g>
</g>
<!-- Node9&#45;&gt;Node10 -->
<g id="edge11" class="edge"><title>Node9&#45;&gt;Node10</title>
<path fill="none" stroke="midnightblue" d="M818.669,-420.527C794.159,-408.896 767.449,-394.428 745,-378 742.008,-375.81 739.031,-373.492 736.086,-371.08"/>
<polygon fill="none" stroke="midnightblue" points="817.399,-423.796 827.942,-424.844 820.353,-417.45 817.399,-423.796"/>
</g>
<!-- Node11 -->
<g id="node11" class="node"><title>Node11</title>
<g id="a_node11"><a xlink:href="../../d3/d53/interfacede_1_1flashpixx_1_1rrd__antlr4_1_1antlr_1_1IGrammarRule.html" target="_top" xlink:title="interface for a grammar rule ">
<polygon fill="none" stroke="black" points="754,-268 754,-332 884,-332 884,-268 754,-268"/>
<text text-anchor="start" x="762" y="-320.8" font-family="Helvetica,sans-Serif" font-size="9.00">de.flashpixx.rrd_antlr4.antlr.</text>
<text text-anchor="middle" x="819" y="-310.8" font-family="Helvetica,sans-Serif" font-size="9.00">IGrammarRule</text>
<polyline fill="none" stroke="black" points="754,-304 884,-304 "/>
<text text-anchor="middle" x="819" y="-292.8" font-family="Helvetica,sans-Serif" font-size="9.00"> </text>
<polyline fill="none" stroke="black" points="754,-286 884,-286 "/>
<text text-anchor="start" x="762" y="-274.8" font-family="Helvetica,sans-Serif" font-size="9.00">+ children()</text>
</a>
</g>
</g>
<!-- Node9&#45;&gt;Node11 -->
<g id="edge12" class="edge"><title>Node9&#45;&gt;Node11</title>
<path fill="none" stroke="midnightblue" d="M870.577,-405.548C858.913,-381.904 844.948,-353.598 834.493,-332.405"/>
<polygon fill="none" stroke="midnightblue" points="867.524,-407.27 875.087,-414.689 873.801,-404.173 867.524,-407.27"/>
</g>
<!-- Node13 -->
<g id="node13" class="node"><title>Node13</title>
<g id="a_node13"><a xlink:href="../../da/d3c/interfacede_1_1flashpixx_1_1rrd__antlr4_1_1antlr_1_1IGrammarTerminal.html" target="_top" xlink:title="interface of grammar terminal ">
<polygon fill="none" stroke="black" points="902,-268 902,-332 1032,-332 1032,-268 902,-268"/>
<text text-anchor="start" x="910" y="-320.8" font-family="Helvetica,sans-Serif" font-size="9.00">de.flashpixx.rrd_antlr4.antlr.</text>
<text text-anchor="middle" x="967" y="-310.8" font-family="Helvetica,sans-Serif" font-size="9.00">IGrammarTerminal</text>
<polyline fill="none" stroke="black" points="902,-304 1032,-304 "/>
<text text-anchor="middle" x="967" y="-292.8" font-family="Helvetica,sans-Serif" font-size="9.00"> </text>
<polyline fill="none" stroke="black" points="902,-286 1032,-286 "/>
<text text-anchor="start" x="910" y="-274.8" font-family="Helvetica,sans-Serif" font-size="9.00">+ children()</text>
</a>
</g>
</g>
<!-- Node9&#45;&gt;Node13 -->
<g id="edge14" class="edge"><title>Node9&#45;&gt;Node13</title>
<path fill="none" stroke="midnightblue" d="M915.423,-405.548C927.087,-381.904 941.052,-353.598 951.507,-332.405"/>
<polygon fill="none" stroke="midnightblue" points="912.199,-404.173 910.913,-414.689 918.476,-407.27 912.199,-404.173"/>
</g>
<!-- Node12 -->
<g id="node12" class="node"><title>Node12</title>
<g id="a_node12"><a xlink:href="../../dc/dc5/classde_1_1flashpixx_1_1rrd__antlr4_1_1antlr_1_1CGrammarRule.html" target="_top" xlink:title="represenation of a grammar rule ">
<polygon fill="none" stroke="black" points="754,-11 754,-175 884,-175 884,-11 754,-11"/>
<text text-anchor="start" x="762" y="-163.8" font-family="Helvetica,sans-Serif" font-size="9.00">de.flashpixx.rrd_antlr4.antlr.</text>
<text text-anchor="middle" x="819" y="-153.8" font-family="Helvetica,sans-Serif" font-size="9.00">CGrammarRule</text>
<polyline fill="none" stroke="black" points="754,-147 884,-147 "/>
<text text-anchor="start" x="762" y="-135.8" font-family="Helvetica,sans-Serif" font-size="9.00">&#45; m_documentation</text>
<text text-anchor="start" x="762" y="-125.8" font-family="Helvetica,sans-Serif" font-size="9.00">&#45; m_element</text>
<text text-anchor="start" x="762" y="-115.8" font-family="Helvetica,sans-Serif" font-size="9.00">&#45; m_id</text>
<polyline fill="none" stroke="black" points="754,-109 884,-109 "/>
<text text-anchor="start" x="762" y="-97.8" font-family="Helvetica,sans-Serif" font-size="9.00">+ CGrammarRule()</text>
<text text-anchor="start" x="762" y="-87.8" font-family="Helvetica,sans-Serif" font-size="9.00">+ cardinality()</text>
<text text-anchor="start" x="762" y="-77.8" font-family="Helvetica,sans-Serif" font-size="9.00">+ cardinality()</text>
<text text-anchor="start" x="762" y="-67.8" font-family="Helvetica,sans-Serif" font-size="9.00">+ children()</text>
<text text-anchor="start" x="762" y="-57.8" font-family="Helvetica,sans-Serif" font-size="9.00">+ documentation()</text>
<text text-anchor="start" x="762" y="-47.8" font-family="Helvetica,sans-Serif" font-size="9.00">+ equals()</text>
<text text-anchor="start" x="762" y="-37.8" font-family="Helvetica,sans-Serif" font-size="9.00">+ hashCode()</text>
<text text-anchor="start" x="762" y="-27.8" font-family="Helvetica,sans-Serif" font-size="9.00">+ id()</text>
<text text-anchor="start" x="762" y="-17.8" font-family="Helvetica,sans-Serif" font-size="9.00">+ toString()</text>
</a>
</g>
</g>
<!-- Node11&#45;&gt;Node12 -->
<g id="edge13" class="edge"><title>Node11&#45;&gt;Node12</title>
<path fill="none" stroke="midnightblue" d="M819,-257.821C819,-234.104 819,-203.461 819,-175.104"/>
<polygon fill="none" stroke="midnightblue" points="815.5,-257.865 819,-267.865 822.5,-257.865 815.5,-257.865"/>
</g>
<!-- Node14 -->
<g id="node14" class="node"><title>Node14</title>
<g id="a_node14"><a xlink:href="../../d5/d65/classde_1_1flashpixx_1_1rrd__antlr4_1_1antlr_1_1CGrammarNonTerminal.html" target="_top" xlink:title="represenation of a terminal symbol ">
<polygon fill="none" stroke="black" points="902,-1 902,-185 1032,-185 1032,-1 902,-1"/>
<text text-anchor="start" x="910" y="-173.8" font-family="Helvetica,sans-Serif" font-size="9.00">de.flashpixx.rrd_antlr4.antlr.</text>
<text text-anchor="middle" x="967" y="-163.8" font-family="Helvetica,sans-Serif" font-size="9.00">CGrammarNonTerminal</text>
<polyline fill="none" stroke="black" points="902,-157 1032,-157 "/>
<text text-anchor="start" x="910" y="-145.8" font-family="Helvetica,sans-Serif" font-size="9.00">&#45; m_cardinality</text>
<text text-anchor="start" x="910" y="-135.8" font-family="Helvetica,sans-Serif" font-size="9.00">&#45; m_documentation</text>
<text text-anchor="start" x="910" y="-125.8" font-family="Helvetica,sans-Serif" font-size="9.00">&#45; m_element</text>
<text text-anchor="start" x="910" y="-115.8" font-family="Helvetica,sans-Serif" font-size="9.00">&#45; m_id</text>
<polyline fill="none" stroke="black" points="902,-109 1032,-109 "/>
<text text-anchor="start" x="910" y="-97.8" font-family="Helvetica,sans-Serif" font-size="9.00">+ CGrammarNonTerminal()</text>
<text text-anchor="start" x="910" y="-87.8" font-family="Helvetica,sans-Serif" font-size="9.00">+ CGrammarNonTerminal()</text>
<text text-anchor="start" x="910" y="-77.8" font-family="Helvetica,sans-Serif" font-size="9.00">+ cardinality()</text>
<text text-anchor="start" x="910" y="-67.8" font-family="Helvetica,sans-Serif" font-size="9.00">+ cardinality()</text>
<text text-anchor="start" x="910" y="-57.8" font-family="Helvetica,sans-Serif" font-size="9.00">+ children()</text>
<text text-anchor="start" x="910" y="-47.8" font-family="Helvetica,sans-Serif" font-size="9.00">+ documentation()</text>
<text text-anchor="start" x="910" y="-37.8" font-family="Helvetica,sans-Serif" font-size="9.00">+ equals()</text>
<text text-anchor="start" x="910" y="-27.8" font-family="Helvetica,sans-Serif" font-size="9.00">+ hashCode()</text>
<text text-anchor="start" x="910" y="-17.8" font-family="Helvetica,sans-Serif" font-size="9.00">+ id()</text>
<text text-anchor="start" x="910" y="-7.8" font-family="Helvetica,sans-Serif" font-size="9.00">+ toString()</text>
</a>
</g>
</g>
<!-- Node13&#45;&gt;Node14 -->
<g id="edge15" class="edge"><title>Node13&#45;&gt;Node14</title>
<path fill="none" stroke="midnightblue" d="M967,-257.779C967,-236.915 967,-210.699 967,-185.397"/>
<polygon fill="none" stroke="midnightblue" points="963.5,-257.865 967,-267.865 970.5,-257.865 963.5,-257.865"/>
</g>
<!-- Node16 -->
<g id="node16" class="node"><title>Node16</title>
<g id="a_node16"><a xlink:href="../../d2/dea/classde_1_1flashpixx_1_1rrd__antlr4_1_1antlr_1_1CGrammarGroup.html" target="_top" xlink:title="group of grammar elements ">
<polygon fill="none" stroke="black" points="1050,-228 1050,-372 1180,-372 1180,-228 1050,-228"/>
<text text-anchor="start" x="1058" y="-360.8" font-family="Helvetica,sans-Serif" font-size="9.00">de.flashpixx.rrd_antlr4.antlr.</text>
<text text-anchor="middle" x="1115" y="-350.8" font-family="Helvetica,sans-Serif" font-size="9.00">CGrammarGroup</text>
<polyline fill="none" stroke="black" points="1050,-344 1180,-344 "/>
<text text-anchor="start" x="1058" y="-332.8" font-family="Helvetica,sans-Serif" font-size="9.00">&#45; m_cardinality</text>
<text text-anchor="start" x="1058" y="-322.8" font-family="Helvetica,sans-Serif" font-size="9.00">&#45; m_element</text>
<polyline fill="none" stroke="black" points="1050,-316 1180,-316 "/>
<text text-anchor="start" x="1058" y="-304.8" font-family="Helvetica,sans-Serif" font-size="9.00">+ CGrammarGroup()</text>
<text text-anchor="start" x="1058" y="-294.8" font-family="Helvetica,sans-Serif" font-size="9.00">+ CGrammarGroup()</text>
<text text-anchor="start" x="1058" y="-284.8" font-family="Helvetica,sans-Serif" font-size="9.00">+ cardinality()</text>
<text text-anchor="start" x="1058" y="-274.8" font-family="Helvetica,sans-Serif" font-size="9.00">+ cardinality()</text>
<text text-anchor="start" x="1058" y="-264.8" font-family="Helvetica,sans-Serif" font-size="9.00">+ element()</text>
<text text-anchor="start" x="1058" y="-254.8" font-family="Helvetica,sans-Serif" font-size="9.00">+ equals()</text>
<text text-anchor="start" x="1058" y="-244.8" font-family="Helvetica,sans-Serif" font-size="9.00">+ hashCode()</text>
<text text-anchor="start" x="1058" y="-234.8" font-family="Helvetica,sans-Serif" font-size="9.00">+ toString()</text>
</a>
</g>
</g>
<!-- Node15&#45;&gt;Node16 -->
<g id="edge17" class="edge"><title>Node15&#45;&gt;Node16</title>
<path fill="none" stroke="midnightblue" d="M1115,-409.676C1115,-398.059 1115,-385.08 1115,-372.249"/>
<polygon fill="none" stroke="midnightblue" points="1111.5,-409.92 1115,-419.92 1118.5,-409.92 1111.5,-409.92"/>
</g>
<!-- Node18 -->
<g id="node18" class="node"><title>Node18</title>
<g id="a_node18"><a xlink:href="../../d8/d1c/classde_1_1flashpixx_1_1rrd__antlr4_1_1antlr_1_1CGrammarNegation.html" target="_top" xlink:title="negation ">
<polygon fill="none" stroke="black" points="1198,-228 1198,-372 1328,-372 1328,-228 1198,-228"/>
<text text-anchor="start" x="1206" y="-360.8" font-family="Helvetica,sans-Serif" font-size="9.00">de.flashpixx.rrd_antlr4.antlr.</text>
<text text-anchor="middle" x="1263" y="-350.8" font-family="Helvetica,sans-Serif" font-size="9.00">CGrammarNegation</text>
<polyline fill="none" stroke="black" points="1198,-344 1328,-344 "/>
<text text-anchor="start" x="1206" y="-332.8" font-family="Helvetica,sans-Serif" font-size="9.00">&#45; m_cardinality</text>
<text text-anchor="start" x="1206" y="-322.8" font-family="Helvetica,sans-Serif" font-size="9.00">&#45; m_element</text>
<polyline fill="none" stroke="black" points="1198,-316 1328,-316 "/>
<text text-anchor="start" x="1206" y="-304.8" font-family="Helvetica,sans-Serif" font-size="9.00">+ CGrammarNegation()</text>
<text text-anchor="start" x="1206" y="-294.8" font-family="Helvetica,sans-Serif" font-size="9.00">+ CGrammarNegation()</text>
<text text-anchor="start" x="1206" y="-284.8" font-family="Helvetica,sans-Serif" font-size="9.00">+ cardinality()</text>
<text text-anchor="start" x="1206" y="-274.8" font-family="Helvetica,sans-Serif" font-size="9.00">+ cardinality()</text>
<text text-anchor="start" x="1206" y="-264.8" font-family="Helvetica,sans-Serif" font-size="9.00">+ equals()</text>
<text text-anchor="start" x="1206" y="-254.8" font-family="Helvetica,sans-Serif" font-size="9.00">+ hashCode()</text>
<text text-anchor="start" x="1206" y="-244.8" font-family="Helvetica,sans-Serif" font-size="9.00">+ inner()</text>
<text text-anchor="start" x="1206" y="-234.8" font-family="Helvetica,sans-Serif" font-size="9.00">+ toString()</text>
</a>
</g>
</g>
<!-- Node17&#45;&gt;Node18 -->
<g id="edge19" class="edge"><title>Node17&#45;&gt;Node18</title>
<path fill="none" stroke="midnightblue" d="M1263,-409.676C1263,-398.059 1263,-385.08 1263,-372.249"/>
<polygon fill="none" stroke="midnightblue" points="1259.5,-409.92 1263,-419.92 1266.5,-409.92 1259.5,-409.92"/>
</g>
<!-- Node20 -->
<g id="node20" class="node"><title>Node20</title>
<g id="a_node20"><a xlink:href="../../d3/d6a/classde_1_1flashpixx_1_1rrd__antlr4_1_1antlr_1_1CGrammarTerminalValue_3_01T_01_4.html" target="_top" xlink:title="stores any terminal value ">
<polygon fill="none" stroke="black" points="1346,-223 1346,-377 1488,-377 1488,-223 1346,-223"/>
<text text-anchor="start" x="1354" y="-365.8" font-family="Helvetica,sans-Serif" font-size="9.00">de.flashpixx.rrd_antlr4.antlr.</text>
<text text-anchor="middle" x="1417" y="-355.8" font-family="Helvetica,sans-Serif" font-size="9.00">CGrammarTerminalValue&lt; T &gt;</text>
<polyline fill="none" stroke="black" points="1346,-349 1488,-349 "/>
<text text-anchor="start" x="1354" y="-337.8" font-family="Helvetica,sans-Serif" font-size="9.00">&#45; m_cardinality</text>
<text text-anchor="start" x="1354" y="-327.8" font-family="Helvetica,sans-Serif" font-size="9.00">&#45; m_value</text>
<polyline fill="none" stroke="black" points="1346,-321 1488,-321 "/>
<text text-anchor="start" x="1354" y="-309.8" font-family="Helvetica,sans-Serif" font-size="9.00">+ CGrammarTerminalValue()</text>
<text text-anchor="start" x="1354" y="-299.8" font-family="Helvetica,sans-Serif" font-size="9.00">+ CGrammarTerminalValue()</text>
<text text-anchor="start" x="1354" y="-289.8" font-family="Helvetica,sans-Serif" font-size="9.00">+ cardinality()</text>
<text text-anchor="start" x="1354" y="-279.8" font-family="Helvetica,sans-Serif" font-size="9.00">+ cardinality()</text>
<text text-anchor="start" x="1354" y="-269.8" font-family="Helvetica,sans-Serif" font-size="9.00">+ equals()</text>
<text text-anchor="start" x="1354" y="-259.8" font-family="Helvetica,sans-Serif" font-size="9.00">+ get()</text>
<text text-anchor="start" x="1354" y="-249.8" font-family="Helvetica,sans-Serif" font-size="9.00">+ hashCode()</text>
<text text-anchor="start" x="1354" y="-239.8" font-family="Helvetica,sans-Serif" font-size="9.00">+ isValueAssignableTo()</text>
<text text-anchor="start" x="1354" y="-229.8" font-family="Helvetica,sans-Serif" font-size="9.00">+ toString()</text>
</a>
</g>
</g>
<!-- Node19&#45;&gt;Node20 -->
<g id="edge21" class="edge"><title>Node19&#45;&gt;Node20</title>
<path fill="none" stroke="midnightblue" d="M1416.31,-404.676C1416.37,-395.872 1416.43,-386.448 1416.49,-377.002"/>
<polygon fill="none" stroke="midnightblue" points="1412.81,-404.666 1416.24,-414.689 1419.81,-404.713 1412.81,-404.666"/>
</g>
</g>
</svg>
        <g id="navigator" transform="translate(0 0)" fill="#404254">
                <rect fill="#f2f5e9" fill-opacity="0.5" stroke="#606060" stroke-width=".5" x="0" y="0" width="60" height="60"/>
                <use id="zoomplus" xlink:href="#zoomPlus" x="17" y="9" onmousedown="handleZoom(evt,'in')"/>
                <use id="zoomminus" xlink:href="#zoomMin" x="42" y="9" onmousedown="handleZoom(evt,'out')"/>
                <use id="reset" xlink:href="#resetDef" x="30" y="36" onmousedown="handleReset()"/>
                <g id="arrowUp" xlink:href="#dirArrow" transform="translate(30 24)" onmousedown="handlePan(0,-1)">
                  <use xlink:href="#rim" fill="#404040">
                        <set attributeName="fill" to="#808080" begin="arrowUp.mouseover" end="arrowUp.mouseout"/>
                  </use>
                  <path fill="none" stroke="white" stroke-width="1.5" d="M0,-3.0v7 M-2.5,-0.5L0,-3.0L2.5,-0.5"/>
                </g>
                <g id="arrowRight" xlink:href="#dirArrow" transform="rotate(90) translate(36 -43)" onmousedown="handlePan(1,0)">
                  <use xlink:href="#rim" fill="#404040">
                        <set attributeName="fill" to="#808080" begin="arrowRight.mouseover" end="arrowRight.mouseout"/>
                  </use>
                  <path fill="none" stroke="white" stroke-width="1.5" d="M0,-3.0v7 M-2.5,-0.5L0,-3.0L2.5,-0.5"/>
                </g>
                <g id="arrowDown" xlink:href="#dirArrow" transform="rotate(180) translate(-30 -48)" onmousedown="handlePan(0,1)">
                  <use xlink:href="#rim" fill="#404040">
                        <set attributeName="fill" to="#808080" begin="arrowDown.mouseover" end="arrowDown.mouseout"/>
                  </use>
                  <path fill="none" stroke="white" stroke-width="1.5" d="M0,-3.0v7 M-2.5,-0.5L0,-3.0L2.5,-0.5"/>
                </g>
                <g id="arrowLeft" xlink:href="#dirArrow" transform="rotate(270) translate(-36 17)" onmousedown="handlePan(-1,0)">
                  <use xlink:href="#rim" fill="#404040">
                        <set attributeName="fill" to="#808080" begin="arrowLeft.mouseover" end="arrowLeft.mouseout"/>
                  </use>
                  <path fill="none" stroke="white" stroke-width="1.5" d="M0,-3.0v7 M-2.5,-0.5L0,-3.0L2.5,-0.5"/>
                </g>
        </g>
        <svg viewBox="0 0 15 15" width="100%" height="30px" preserveAspectRatio="xMaxYMin meet">
         <g id="arrow_out" transform="scale(0.3 0.3)">
          <a xlink:href="interfacede_1_1flashpixx_1_1rrd__antlr4_1_1antlr_1_1IGrammarElement__inherit__graph_org.svg" target="_base">
           <rect id="button" ry="5" rx="5" y="6" x="6" height="38" width="38"
                fill="#f2f5e9" fill-opacity="0.5" stroke="#606060" stroke-width="1.0"/>
           <path id="arrow"
             d="M 11.500037,31.436501 C 11.940474,20.09759 22.043105,11.32322 32.158766,21.979434 L 37.068811,17.246167 C 37.068811,17.246167 37.088388,32 37.088388,32 L 22.160133,31.978069 C 22.160133,31.978069 26.997745,27.140456 26.997745,27.140456 C 18.528582,18.264221 13.291696,25.230495 11.500037,31.436501 z"
             style="fill:#404040;"/>
          </a>
         </g>
        </svg>
</svg>
