<?xml version="1.0" encoding="UTF-8" standalone="no"?>
<!DOCTYPE svg PUBLIC "-//W3C//DTD SVG 1.1//EN"
 "http://www.w3.org/Graphics/SVG/1.1/DTD/svg11.dtd">
<!-- Generated by graphviz version 2.36.0 (20140111.2315)
 -->
<!-- Title: Graphical Class Hierarchy Pages: 1 -->
<svg width="460pt" height="73pt"
 viewBox="0.00 0.00 460.00 73.00" xmlns="http://www.w3.org/2000/svg" xmlns:xlink="http://www.w3.org/1999/xlink">
<g id="graph0" class="graph" transform="scale(1 1) rotate(0) translate(4 69)">
<title>Graphical Class Hierarchy</title>
<!-- Node1 -->
<g id="node1" class="node"><title>Node1</title>
<polygon fill="none" stroke="#bfbfbf" points="0.5,-42 0.5,-60 119.5,-60 119.5,-42 0.5,-42"/>
<text text-anchor="middle" x="60" y="-48.8" font-family="Helvetica,sans-Serif" font-size="9.00">IGrammarSimpleElement</text>
</g>
<!-- Node2 -->
<g id="node2" class="node"><title>Node2</title>
<g id="a_node2"><a xlink:href="d8/d86/interfacede_1_1flashpixx_1_1rrd__antlr4_1_1antlr_1_1IGrammarIdentifier.html" target="_top" xlink:title="grammar identifier &#45; for linkage between elements ">
<polygon fill="none" stroke="black" points="156,-37 156,-65 286,-65 286,-37 156,-37"/>
<text text-anchor="start" x="164" y="-53.8" font-family="Helvetica,sans-Serif" font-size="9.00">de.flashpixx.rrd_antlr4.antlr.</text>
<text text-anchor="middle" x="221" y="-43.8" font-family="Helvetica,sans-Serif" font-size="9.00">IGrammarIdentifier</text>
</a>
</g>
</g>
<!-- Node1&#45;&gt;Node2 -->
<g id="edge1" class="edge"><title>Node1&#45;&gt;Node2</title>
<path fill="none" stroke="midnightblue" d="M129.811,-51C138.466,-51 147.294,-51 155.874,-51"/>
<polygon fill="midnightblue" stroke="midnightblue" points="129.754,-47.5001 119.754,-51 129.754,-54.5001 129.754,-47.5001"/>
</g>
<!-- Node3 -->
<g id="node3" class="node"><title>Node3</title>
<g id="a_node3"><a xlink:href="d0/dbc/classde_1_1flashpixx_1_1rrd__antlr4_1_1antlr_1_1CGrammarIdentifier.html" target="_top" xlink:title="identifier of a rule for referencing ">
<polygon fill="none" stroke="black" points="322,-16 322,-44 452,-44 452,-16 322,-16"/>
<text text-anchor="start" x="330" y="-32.8" font-family="Helvetica,sans-Serif" font-size="9.00">de.flashpixx.rrd_antlr4.antlr.</text>
<text text-anchor="middle" x="387" y="-22.8" font-family="Helvetica,sans-Serif" font-size="9.00">CGrammarIdentifier</text>
</a>
</g>
</g>
<!-- Node2&#45;&gt;Node3 -->
<g id="edge2" class="edge"><title>Node2&#45;&gt;Node3</title>
<path fill="none" stroke="midnightblue" d="M296.286,-41.4878C304.816,-40.3955 313.458,-39.2889 321.839,-38.2157"/>
<polygon fill="midnightblue" stroke="midnightblue" points="295.821,-38.0187 286.346,-42.7605 296.71,-44.962 295.821,-38.0187"/>
</g>
<!-- Node4 -->
<g id="node4" class="node"><title>Node4</title>
<polygon fill="none" stroke="#bfbfbf" points="160,-0 160,-18 282,-18 282,-0 160,-0"/>
<text text-anchor="middle" x="221" y="-6.8" font-family="Helvetica,sans-Serif" font-size="9.00">CGrammarTerminalValue</text>
</g>
<!-- Node4&#45;&gt;Node3 -->
<g id="edge3" class="edge"><title>Node4&#45;&gt;Node3</title>
<path fill="none" stroke="midnightblue" d="M292.237,-17.9937C302.032,-19.2479 312.055,-20.5314 321.733,-21.7706"/>
<polygon fill="midnightblue" stroke="midnightblue" points="292.5,-14.4989 282.136,-16.7004 291.611,-21.4422 292.5,-14.4989"/>
</g>
</g>
</svg>
