<?xml version="1.0" encoding="UTF-8" standalone="no"?>
<!DOCTYPE svg PUBLIC "-//W3C//DTD SVG 1.1//EN"
 "http://www.w3.org/Graphics/SVG/1.1/DTD/svg11.dtd">
<!-- Generated by graphviz version 2.36.0 (20140111.2315)
 -->
<!-- Title: de.flashpixx.rrd_antlr4.engine.CEngine.generate Pages: 1 -->
<svg width="524pt" height="36pt"
 viewBox="0.00 0.00 524.00 36.00" xmlns="http://www.w3.org/2000/svg" xmlns:xlink="http://www.w3.org/1999/xlink">
<g id="graph0" class="graph" transform="scale(1 1) rotate(0) translate(4 32)">
<title>de.flashpixx.rrd_antlr4.engine.CEngine.generate</title>
<!-- Node1 -->
<g id="node1" class="node"><title>Node1</title>
<polygon fill="#bfbfbf" stroke="black" points="0,-0 0,-28 140,-28 140,-0 0,-0"/>
<text text-anchor="start" x="8" y="-16.8" font-family="Helvetica,sans-Serif" font-size="9.00">de.flashpixx.rrd_antlr4.engine.</text>
<text text-anchor="middle" x="70" y="-6.8" font-family="Helvetica,sans-Serif" font-size="9.00">CEngine.generate</text>
</g>
<!-- Node2 -->
<g id="node2" class="node"><title>Node2</title>
<g id="a_node2"><a xlink:href="../../d0/d41/enumde_1_1flashpixx_1_1rrd__antlr4_1_1engine_1_1template_1_1ETemplate.html#a4dde2d8ecb9f01b04bd3f24b47bcbc71" target="_top" xlink:title="creates a new de.template ">
<polygon fill="none" stroke="black" points="176,-0 176,-28 354,-28 354,-0 176,-0"/>
<text text-anchor="start" x="184" y="-16.8" font-family="Helvetica,sans-Serif" font-size="9.00">de.flashpixx.rrd_antlr4.engine.template.</text>
<text text-anchor="middle" x="265" y="-6.8" font-family="Helvetica,sans-Serif" font-size="9.00">ETemplate.generate</text>
</a>
</g>
</g>
<!-- Node1&#45;&gt;Node2 -->
<g id="edge1" class="edge"><title>Node1&#45;&gt;Node2</title>
<path fill="none" stroke="midnightblue" d="M140.132,-14C148.451,-14 157.065,-14 165.698,-14"/>
<polygon fill="midnightblue" stroke="midnightblue" points="165.825,-17.5001 175.825,-14 165.825,-10.5001 165.825,-17.5001"/>
</g>
<!-- Node3 -->
<g id="node3" class="node"><title>Node3</title>
<g id="a_node3"><a xlink:href="../../d1/d8a/classde_1_1flashpixx_1_1rrd__antlr4_1_1CCommon.html#ad6447e8baa399bbbe95a99ce64373455" target="_top" xlink:title="returns the language depend string on any object ">
<polygon fill="none" stroke="black" points="390.5,-0 390.5,-28 515.5,-28 515.5,-0 390.5,-0"/>
<text text-anchor="start" x="398.5" y="-16.8" font-family="Helvetica,sans-Serif" font-size="9.00">de.flashpixx.rrd_antlr4.</text>
<text text-anchor="middle" x="453" y="-6.8" font-family="Helvetica,sans-Serif" font-size="9.00">CCommon.languagestring</text>
</a>
</g>
</g>
<!-- Node2&#45;&gt;Node3 -->
<g id="edge2" class="edge"><title>Node2&#45;&gt;Node3</title>
<path fill="none" stroke="midnightblue" d="M354.098,-14C362.939,-14 371.839,-14 380.478,-14"/>
<polygon fill="midnightblue" stroke="midnightblue" points="380.479,-17.5001 390.479,-14 380.479,-10.5001 380.479,-17.5001"/>
</g>
</g>
</svg>
