<?xml version="1.0" encoding="UTF-8" standalone="no"?>
<!DOCTYPE svg PUBLIC "-//W3C//DTD SVG 1.1//EN"
 "http://www.w3.org/Graphics/SVG/1.1/DTD/svg11.dtd">
<!-- Generated by graphviz version 2.36.0 (20140111.2315)
 -->
<!-- Title: de.flashpixx.rrd_antlr4.CCommon.languagestring Pages: 1 -->
<svg width="536pt" height="247pt"
 viewBox="0.00 0.00 536.00 247.00" xmlns="http://www.w3.org/2000/svg" xmlns:xlink="http://www.w3.org/1999/xlink">
<g id="graph0" class="graph" transform="scale(1 1) rotate(0) translate(4 243)">
<title>de.flashpixx.rrd_antlr4.CCommon.languagestring</title>
<!-- Node1 -->
<g id="node1" class="node"><title>Node1</title>
<polygon fill="#bfbfbf" stroke="black" points="0.5,-94 0.5,-122 125.5,-122 125.5,-94 0.5,-94"/>
<text text-anchor="start" x="8.5" y="-110.8" font-family="Helvetica,sans-Serif" font-size="9.00">de.flashpixx.rrd_antlr4.</text>
<text text-anchor="middle" x="63" y="-100.8" font-family="Helvetica,sans-Serif" font-size="9.00">CCommon.languagestring</text>
</g>
<!-- Node2 -->
<g id="node2" class="node"><title>Node2</title>
<g id="a_node2"><a xlink:href="../../d0/d41/enumde_1_1flashpixx_1_1rrd__antlr4_1_1engine_1_1template_1_1ETemplate.html#a4dde2d8ecb9f01b04bd3f24b47bcbc71" target="_top" xlink:title="creates a new de.template ">
<polygon fill="none" stroke="black" points="162,-188 162,-216 340,-216 340,-188 162,-188"/>
<text text-anchor="start" x="170" y="-204.8" font-family="Helvetica,sans-Serif" font-size="9.00">de.flashpixx.rrd_antlr4.engine.template.</text>
<text text-anchor="middle" x="251" y="-194.8" font-family="Helvetica,sans-Serif" font-size="9.00">ETemplate.generate</text>
</a>
</g>
</g>
<!-- Node1&#45;&gt;Node2 -->
<g id="edge1" class="edge"><title>Node1&#45;&gt;Node2</title>
<path fill="none" stroke="midnightblue" d="M87.6637,-128.583C106.629,-144.132 134.523,-164.955 162,-178 170.011,-181.803 178.728,-185.091 187.459,-187.907"/>
<polygon fill="midnightblue" stroke="midnightblue" points="89.7807,-125.791 79.8612,-122.069 85.2945,-131.165 89.7807,-125.791"/>
</g>
<!-- Node5 -->
<g id="node5" class="node"><title>Node5</title>
<g id="a_node5"><a xlink:href="../../df/db0/classde_1_1flashpixx_1_1rrd__antlr4_1_1engine_1_1template_1_1CHTML.html#aa7507dba1f5f25745319524e2514dbc0" target="_top" xlink:title="postprocessing (after AST visiting) ">
<polygon fill="none" stroke="black" points="162,-141 162,-169 340,-169 340,-141 162,-141"/>
<text text-anchor="start" x="170" y="-157.8" font-family="Helvetica,sans-Serif" font-size="9.00">de.flashpixx.rrd_antlr4.engine.template.</text>
<text text-anchor="middle" x="251" y="-147.8" font-family="Helvetica,sans-Serif" font-size="9.00">CHTML.postprocess</text>
</a>
</g>
</g>
<!-- Node1&#45;&gt;Node5 -->
<g id="edge4" class="edge"><title>Node1&#45;&gt;Node5</title>
<path fill="none" stroke="midnightblue" d="M129.455,-124.54C150.669,-129.9 173.985,-135.792 194.411,-140.953"/>
<polygon fill="midnightblue" stroke="midnightblue" points="130.107,-121.094 119.554,-122.038 128.392,-127.881 130.107,-121.094"/>
</g>
<!-- Node6 -->
<g id="node6" class="node"><title>Node6</title>
<g id="a_node6"><a xlink:href="../../da/d63/classde_1_1flashpixx_1_1rrd__antlr4_1_1engine_1_1template_1_1CLaTeXSyntax.html#af67e20f51735f5e721e494e7f9752c8d" target="_top" xlink:title="postprocessing (after AST visiting) ">
<polygon fill="none" stroke="black" points="162,-94 162,-122 340,-122 340,-94 162,-94"/>
<text text-anchor="start" x="170" y="-110.8" font-family="Helvetica,sans-Serif" font-size="9.00">de.flashpixx.rrd_antlr4.engine.template.</text>
<text text-anchor="middle" x="251" y="-100.8" font-family="Helvetica,sans-Serif" font-size="9.00">CLaTeXSyntax.postprocess</text>
</a>
</g>
</g>
<!-- Node1&#45;&gt;Node6 -->
<g id="edge5" class="edge"><title>Node1&#45;&gt;Node6</title>
<path fill="none" stroke="midnightblue" d="M135.929,-108C144.452,-108 153.225,-108 161.939,-108"/>
<polygon fill="midnightblue" stroke="midnightblue" points="135.677,-104.5 125.677,-108 135.677,-111.5 135.677,-104.5"/>
</g>
<!-- Node7 -->
<g id="node7" class="node"><title>Node7</title>
<g id="a_node7"><a xlink:href="../../d5/dcc/classde_1_1flashpixx_1_1rrd__antlr4_1_1engine_1_1template_1_1IBaseTemplate.html#aa49287298cded5435a9c0a0a494fd6f0" target="_top" xlink:title="replaces the string within the file ">
<polygon fill="none" stroke="black" points="162,-47 162,-75 340,-75 340,-47 162,-47"/>
<text text-anchor="start" x="170" y="-63.8" font-family="Helvetica,sans-Serif" font-size="9.00">de.flashpixx.rrd_antlr4.engine.template.</text>
<text text-anchor="middle" x="251" y="-53.8" font-family="Helvetica,sans-Serif" font-size="9.00">IBaseTemplate.replace</text>
</a>
</g>
</g>
<!-- Node1&#45;&gt;Node7 -->
<g id="edge6" class="edge"><title>Node1&#45;&gt;Node7</title>
<path fill="none" stroke="midnightblue" d="M129.455,-91.4602C150.669,-86.0998 173.985,-80.2082 194.411,-75.0467"/>
<polygon fill="midnightblue" stroke="midnightblue" points="128.392,-88.1188 119.554,-93.9621 130.107,-94.9055 128.392,-88.1188"/>
</g>
<!-- Node8 -->
<g id="node8" class="node"><title>Node8</title>
<g id="a_node8"><a xlink:href="../../d1/d8a/classde_1_1flashpixx_1_1rrd__antlr4_1_1CCommon.html#a462fea64266b69b5dfb64e63482b8762" target="_top" xlink:title="returns a file from a resource e.g. ">
<polygon fill="none" stroke="black" points="196,-0 196,-28 306,-28 306,-0 196,-0"/>
<text text-anchor="start" x="204" y="-16.8" font-family="Helvetica,sans-Serif" font-size="9.00">de.flashpixx.rrd_antlr4.</text>
<text text-anchor="middle" x="251" y="-6.8" font-family="Helvetica,sans-Serif" font-size="9.00">CCommon.resourceurl</text>
</a>
</g>
</g>
<!-- Node1&#45;&gt;Node8 -->
<g id="edge7" class="edge"><title>Node1&#45;&gt;Node8</title>
<path fill="none" stroke="midnightblue" d="M87.6637,-87.4169C106.629,-71.8679 134.523,-51.0448 162,-38 172.586,-32.9742 184.405,-28.8486 195.86,-25.5226"/>
<polygon fill="midnightblue" stroke="midnightblue" points="85.2945,-84.8354 79.8612,-93.931 89.7807,-90.2089 85.2945,-84.8354"/>
</g>
<!-- Node3 -->
<g id="node3" class="node"><title>Node3</title>
<g id="a_node3"><a xlink:href="../../d9/d6b/classde_1_1flashpixx_1_1rrd__antlr4_1_1engine_1_1CEngine.html#adfcfdc703142684016ec6cb0bf8722a5" target="_top" xlink:title="generator call ">
<polygon fill="none" stroke="black" points="382,-211 382,-239 522,-239 522,-211 382,-211"/>
<text text-anchor="start" x="390" y="-227.8" font-family="Helvetica,sans-Serif" font-size="9.00">de.flashpixx.rrd_antlr4.engine.</text>
<text text-anchor="middle" x="452" y="-217.8" font-family="Helvetica,sans-Serif" font-size="9.00">CEngine.generate</text>
</a>
</g>
</g>
<!-- Node2&#45;&gt;Node3 -->
<g id="edge2" class="edge"><title>Node2&#45;&gt;Node3</title>
<path fill="none" stroke="midnightblue" d="M350.312,-213.363C360.93,-214.59 371.566,-215.819 381.737,-216.995"/>
<polygon fill="midnightblue" stroke="midnightblue" points="350.489,-209.86 340.153,-212.189 349.685,-216.814 350.489,-209.86"/>
</g>
<!-- Node4 -->
<g id="node4" class="node"><title>Node4</title>
<g id="a_node4"><a xlink:href="../../d2/d08/classde_1_1flashpixx_1_1rrd__antlr4_1_1generator_1_1CPlugin.html#ad3887b358097a93113bd4a67370836e7" target="_top" xlink:title="de.flashpixx.rrd_antlr4.generator.\lCPlugin.processmessages">
<polygon fill="none" stroke="black" points="376,-164 376,-192 528,-192 528,-164 376,-164"/>
<text text-anchor="start" x="384" y="-180.8" font-family="Helvetica,sans-Serif" font-size="9.00">de.flashpixx.rrd_antlr4.generator.</text>
<text text-anchor="middle" x="452" y="-170.8" font-family="Helvetica,sans-Serif" font-size="9.00">CPlugin.processmessages</text>
</a>
</g>
</g>
<!-- Node2&#45;&gt;Node4 -->
<g id="edge3" class="edge"><title>Node2&#45;&gt;Node4</title>
<path fill="none" stroke="midnightblue" d="M350.278,-190.147C358.921,-189.105 367.576,-188.061 375.982,-187.047"/>
<polygon fill="midnightblue" stroke="midnightblue" points="349.662,-186.696 340.153,-191.368 350.5,-193.646 349.662,-186.696"/>
</g>
</g>
</svg>
