<?xml version="1.0" encoding="UTF-8" standalone="no"?>
<!DOCTYPE svg PUBLIC "-//W3C//DTD SVG 1.1//EN"
 "http://www.w3.org/Graphics/SVG/1.1/DTD/svg11.dtd">
<!-- Generated by graphviz version 2.36.0 (20140111.2315)
 -->
<!-- Title: de.flashpixx.rrd_antlr4.antlr.CGrammarIdentifier Pages: 1 -->
<svg width="138pt" height="176pt"
 viewBox="0.00 0.00 138.00 176.00" xmlns="http://www.w3.org/2000/svg" xmlns:xlink="http://www.w3.org/1999/xlink">
<g id="graph0" class="graph" transform="scale(1 1) rotate(0) translate(4 172)">
<title>de.flashpixx.rrd_antlr4.antlr.CGrammarIdentifier</title>
<!-- Node1 -->
<g id="node1" class="node"><title>Node1</title>
<polygon fill="#bfbfbf" stroke="black" points="0,-1 0,-65 130,-65 130,-1 0,-1"/>
<text text-anchor="start" x="8" y="-53.8" font-family="Helvetica,sans-Serif" font-size="9.00">de.flashpixx.rrd_antlr4.antlr.</text>
<text text-anchor="middle" x="65" y="-43.8" font-family="Helvetica,sans-Serif" font-size="9.00">CGrammarIdentifier</text>
<polyline fill="none" stroke="black" points="0,-37 130,-37 "/>
<text text-anchor="middle" x="65" y="-25.8" font-family="Helvetica,sans-Serif" font-size="9.00"> </text>
<polyline fill="none" stroke="black" points="0,-19 130,-19 "/>
<text text-anchor="start" x="8" y="-7.8" font-family="Helvetica,sans-Serif" font-size="9.00">+ CGrammarIdentifier()</text>
</g>
<!-- Node2 -->
<g id="node2" class="node"><title>Node2</title>
<g id="a_node2"><a xlink:href="../../d8/d86/interfacede_1_1flashpixx_1_1rrd__antlr4_1_1antlr_1_1IGrammarIdentifier.html" target="_top" xlink:title="grammar identifier &#45; for linkage between elements ">
<polygon fill="none" stroke="black" points="0,-103 0,-167 130,-167 130,-103 0,-103"/>
<text text-anchor="start" x="8" y="-155.8" font-family="Helvetica,sans-Serif" font-size="9.00">de.flashpixx.rrd_antlr4.antlr.</text>
<text text-anchor="middle" x="65" y="-145.8" font-family="Helvetica,sans-Serif" font-size="9.00">IGrammarIdentifier</text>
<polyline fill="none" stroke="black" points="0,-139 130,-139 "/>
<text text-anchor="middle" x="65" y="-127.8" font-family="Helvetica,sans-Serif" font-size="9.00"> </text>
<polyline fill="none" stroke="black" points="0,-121 130,-121 "/>
<text text-anchor="middle" x="65" y="-109.8" font-family="Helvetica,sans-Serif" font-size="9.00"> </text>
</a>
</g>
</g>
<!-- Node2&#45;&gt;Node1 -->
<g id="edge1" class="edge"><title>Node2&#45;&gt;Node1</title>
<path fill="none" stroke="midnightblue" d="M65,-92.7162C65,-83.4731 65,-73.8199 65,-65.0732"/>
<polygon fill="none" stroke="midnightblue" points="61.5001,-92.9075 65,-102.908 68.5001,-92.9076 61.5001,-92.9075"/>
</g>
</g>
</svg>
