<?xml version="1.0" encoding="UTF-8" standalone="no"?>
<!DOCTYPE svg PUBLIC "-//W3C//DTD SVG 1.1//EN"
 "http://www.w3.org/Graphics/SVG/1.1/DTD/svg11.dtd">
<!-- Generated by graphviz version 2.36.0 (20140111.2315)
 -->
<!-- Title: de.flashpixx.rrd_antlr4.antlr.IGrammarElement.cardinality Pages: 1 -->
<svg width="490pt" height="36pt"
 viewBox="0.00 0.00 490.00 36.00" xmlns="http://www.w3.org/2000/svg" xmlns:xlink="http://www.w3.org/1999/xlink">
<g id="graph0" class="graph" transform="scale(1 1) rotate(0) translate(4 32)">
<title>de.flashpixx.rrd_antlr4.antlr.IGrammarElement.cardinality</title>
<!-- Node1 -->
<g id="node1" class="node"><title>Node1</title>
<polygon fill="#bfbfbf" stroke="black" points="0.5,-0 0.5,-28 135.5,-28 135.5,-0 0.5,-0"/>
<text text-anchor="start" x="8.5" y="-16.8" font-family="Helvetica,sans-Serif" font-size="9.00">de.flashpixx.rrd_antlr4.antlr.</text>
<text text-anchor="middle" x="68" y="-6.8" font-family="Helvetica,sans-Serif" font-size="9.00">IGrammarElement.cardinality</text>
</g>
<!-- Node2 -->
<g id="node2" class="node"><title>Node2</title>
<g id="a_node2"><a xlink:href="../../d0/db6/classde_1_1flashpixx_1_1rrd__antlr4_1_1antlr_1_1CCommon.html#a0f33650de86e7f474f16a7fd109c8df3" target="_top" xlink:title="defines the cardinality of an grammar element ">
<polygon fill="none" stroke="black" points="172,-0 172,-28 302,-28 302,-0 172,-0"/>
<text text-anchor="start" x="180" y="-16.8" font-family="Helvetica,sans-Serif" font-size="9.00">de.flashpixx.rrd_antlr4.antlr.</text>
<text text-anchor="middle" x="237" y="-6.8" font-family="Helvetica,sans-Serif" font-size="9.00">CCommon.cardinality</text>
</a>
</g>
</g>
<!-- Node1&#45;&gt;Node2 -->
<g id="edge1" class="edge"><title>Node1&#45;&gt;Node2</title>
<path fill="none" stroke="midnightblue" d="M146.003,-14C154.611,-14 163.312,-14 171.736,-14"/>
<polygon fill="midnightblue" stroke="midnightblue" points="145.963,-10.5001 135.963,-14 145.963,-17.5001 145.963,-10.5001"/>
</g>
<!-- Node3 -->
<g id="node3" class="node"><title>Node3</title>
<g id="a_node3"><a xlink:href="../../d6/da3/classde_1_1flashpixx_1_1rrd__antlr4_1_1antlr_1_1CASTVisitorAntLR.html#a92b44c44f225bcc85ceaa4a5a459b0d4" target="_top" xlink:title="de.flashpixx.rrd_antlr4.antlr.\lCASTVisitorAntLR.visitElement">
<polygon fill="none" stroke="black" points="338.5,-0 338.5,-28 481.5,-28 481.5,-0 338.5,-0"/>
<text text-anchor="start" x="346.5" y="-16.8" font-family="Helvetica,sans-Serif" font-size="9.00">de.flashpixx.rrd_antlr4.antlr.</text>
<text text-anchor="middle" x="410" y="-6.8" font-family="Helvetica,sans-Serif" font-size="9.00">CASTVisitorAntLR.visitElement</text>
</a>
</g>
</g>
<!-- Node2&#45;&gt;Node3 -->
<g id="edge2" class="edge"><title>Node2&#45;&gt;Node3</title>
<path fill="none" stroke="midnightblue" d="M312.272,-14C320.966,-14 329.818,-14 338.46,-14"/>
<polygon fill="midnightblue" stroke="midnightblue" points="312.161,-10.5001 302.161,-14 312.161,-17.5001 312.161,-10.5001"/>
</g>
</g>
</svg>
