<?xml version="1.0" encoding="UTF-8" standalone="no"?>
<!DOCTYPE svg PUBLIC "-//W3C//DTD SVG 1.1//EN"
 "http://www.w3.org/Graphics/SVG/1.1/DTD/svg11.dtd">
<!-- Generated by graphviz version 2.36.0 (20140111.2315)
 -->
<!-- Title: de.flashpixx.rrd_antlr4.engine.template.CHTML.element Pages: 1 -->
<svg width="414pt" height="83pt"
 viewBox="0.00 0.00 414.00 83.00" xmlns="http://www.w3.org/2000/svg" xmlns:xlink="http://www.w3.org/1999/xlink">
<g id="graph0" class="graph" transform="scale(1 1) rotate(0) translate(4 79)">
<title>de.flashpixx.rrd_antlr4.engine.template.CHTML.element</title>
<!-- Node1 -->
<g id="node1" class="node"><title>Node1</title>
<polygon fill="#bfbfbf" stroke="black" points="0,-23 0,-51 178,-51 178,-23 0,-23"/>
<text text-anchor="start" x="8" y="-39.8" font-family="Helvetica,sans-Serif" font-size="9.00">de.flashpixx.rrd_antlr4.engine.template.</text>
<text text-anchor="middle" x="89" y="-29.8" font-family="Helvetica,sans-Serif" font-size="9.00">CHTML.element</text>
</g>
<!-- Node2 -->
<g id="node2" class="node"><title>Node2</title>
<g id="a_node2"><a xlink:href="../../df/ddb/interfacede_1_1flashpixx_1_1rrd__antlr4_1_1antlr_1_1IGrammarComplexElement.html#aa73d20b5f90dd7499fd8b0e895107b05" target="_top" xlink:title="documentation of the element ">
<polygon fill="none" stroke="black" points="214.5,-47 214.5,-75 405.5,-75 405.5,-47 214.5,-47"/>
<text text-anchor="start" x="222.5" y="-63.8" font-family="Helvetica,sans-Serif" font-size="9.00">de.flashpixx.rrd_antlr4.antlr.</text>
<text text-anchor="middle" x="310" y="-53.8" font-family="Helvetica,sans-Serif" font-size="9.00">IGrammarComplexElement.documentation</text>
</a>
</g>
</g>
<!-- Node1&#45;&gt;Node2 -->
<g id="edge1" class="edge"><title>Node1&#45;&gt;Node2</title>
<path fill="none" stroke="midnightblue" d="M178.129,-46.658C186.672,-47.5942 195.395,-48.5502 204.08,-49.5019"/>
<polygon fill="midnightblue" stroke="midnightblue" points="203.923,-53.0055 214.244,-50.6158 204.685,-46.0472 203.923,-53.0055"/>
</g>
<!-- Node3 -->
<g id="node3" class="node"><title>Node3</title>
<g id="a_node3"><a xlink:href="../../df/ddb/interfacede_1_1flashpixx_1_1rrd__antlr4_1_1antlr_1_1IGrammarComplexElement.html#aeb2381bd8483a7b056d018c57690599e" target="_top" xlink:title="ID of the element. ">
<polygon fill="none" stroke="black" points="241.5,-0 241.5,-28 378.5,-28 378.5,-0 241.5,-0"/>
<text text-anchor="start" x="249.5" y="-16.8" font-family="Helvetica,sans-Serif" font-size="9.00">de.flashpixx.rrd_antlr4.antlr.</text>
<text text-anchor="middle" x="310" y="-6.8" font-family="Helvetica,sans-Serif" font-size="9.00">IGrammarComplexElement.id</text>
</a>
</g>
</g>
<!-- Node1&#45;&gt;Node3 -->
<g id="edge2" class="edge"><title>Node1&#45;&gt;Node3</title>
<path fill="none" stroke="midnightblue" d="M178.129,-27.7444C195.715,-25.8975 214.066,-23.9702 231.272,-22.1632"/>
<polygon fill="midnightblue" stroke="midnightblue" points="231.676,-25.6402 241.255,-21.1147 230.944,-18.6785 231.676,-25.6402"/>
</g>
</g>
</svg>
