<?xml version="1.0" encoding="UTF-8" standalone="no"?>
<!DOCTYPE svg PUBLIC "-//W3C//DTD SVG 1.1//EN"
 "http://www.w3.org/Graphics/SVG/1.1/DTD/svg11.dtd">
<!-- Generated by graphviz version 2.36.0 (20140111.2315)
 -->
<!-- Title: de.flashpixx.rrd_antlr4.engine.template.CHTML.postprocess Pages: 1 -->
<!--zoomable 388 -->
<svg id="main" version="1.1" xmlns="http://www.w3.org/2000/svg" xmlns:xlink="http://www.w3.org/1999/xlink" xml:space="preserve" onload="init(evt)">
<style type="text/css"><![CDATA[
.edge:hover path { stroke: red; }
.edge:hover polygon { stroke: red; fill: red; }
]]></style>
<script type="text/javascript"><![CDATA[
var edges = document.getElementsByTagName('g');
if (edges && edges.length) {
  for (var i=0;i<edges.length;i++) {
    if (edges[i].id.substr(0,4)=='edge') {
      edges[i].setAttribute('class','edge');
    }
  }
}
]]></script>
        <defs>
                <circle id="rim" cx="0" cy="0" r="7"/>
                <circle id="rim2" cx="0" cy="0" r="3.5"/>
                <g id="zoomPlus">
                        <use xlink:href="#rim" fill="#404040">
                                <set attributeName="fill" to="#808080" begin="zoomplus.mouseover" end="zoomplus.mouseout"/>
                        </use>
                        <path d="M-4,0h8M0,-4v8" fill="none" stroke="white" stroke-width="1.5" pointer-events="none"/>
                </g>
                <g id="zoomMin">
                        <use xlink:href="#rim" fill="#404040">
                                <set attributeName="fill" to="#808080" begin="zoomminus.mouseover" end="zoomminus.mouseout"/>
                        </use>
                        <path d="M-4,0h8" fill="none" stroke="white" stroke-width="1.5" pointer-events="none"/>
                </g>
                <g id="dirArrow">
                        <path fill="none" stroke="white" stroke-width="1.5" d="M0,-3.0v7 M-2.5,-0.5L0,-3.0L2.5,-0.5"/>
                </g>
               <g id="resetDef">
                       <use xlink:href="#rim2" fill="#404040">
                               <set attributeName="fill" to="#808080" begin="reset.mouseover" end="reset.mouseout"/>
                       </use>
               </g>
        </defs>

<script type="text/javascript">
var viewWidth = 628;
var viewHeight = 388;
var sectionId = 'dynsection-3';
</script>
<script xlink:href="../../svgpan.js"/>
<svg id="graph" class="graph">
<g id="viewport">
<title>de.flashpixx.rrd_antlr4.engine.template.CHTML.postprocess</title>
<!-- Node1 -->
<g id="node1" class="node"><title>Node1</title>
<polygon fill="#bfbfbf" stroke="black" points="0,-258 0,-286 178,-286 178,-258 0,-258"/>
<text text-anchor="start" x="8" y="-274.8" font-family="Helvetica,sans-Serif" font-size="9.00">de.flashpixx.rrd_antlr4.engine.template.</text>
<text text-anchor="middle" x="89" y="-264.8" font-family="Helvetica,sans-Serif" font-size="9.00">CHTML.postprocess</text>
</g>
<!-- Node2 -->
<g id="node2" class="node"><title>Node2</title>
<g id="a_node2"><a xlink:href="../../df/ddb/interfacede_1_1flashpixx_1_1rrd__antlr4_1_1antlr_1_1IGrammarComplexElement.html#aa73d20b5f90dd7499fd8b0e895107b05" target="_top" xlink:title="documentation of the element ">
<polygon fill="none" stroke="black" points="214.5,-352 214.5,-380 405.5,-380 405.5,-352 214.5,-352"/>
<text text-anchor="start" x="222.5" y="-368.8" font-family="Helvetica,sans-Serif" font-size="9.00">de.flashpixx.rrd_antlr4.antlr.</text>
<text text-anchor="middle" x="310" y="-358.8" font-family="Helvetica,sans-Serif" font-size="9.00">IGrammarComplexElement.documentation</text>
</a>
</g>
</g>
<!-- Node1&#45;&gt;Node2 -->
<g id="edge1" class="edge"><title>Node1&#45;&gt;Node2</title>
<path fill="none" stroke="midnightblue" d="M111.075,-286.218C135.073,-301.846 175.901,-326.752 214,-342 220.314,-344.527 226.972,-346.85 233.714,-348.971"/>
<polygon fill="midnightblue" stroke="midnightblue" points="233.036,-352.421 243.62,-351.934 235.042,-345.715 233.036,-352.421"/>
</g>
<!-- Node3 -->
<g id="node3" class="node"><title>Node3</title>
<g id="a_node3"><a xlink:href="../../df/ddb/interfacede_1_1flashpixx_1_1rrd__antlr4_1_1antlr_1_1IGrammarComplexElement.html#aeb2381bd8483a7b056d018c57690599e" target="_top" xlink:title="ID of the element. ">
<polygon fill="none" stroke="black" points="241.5,-305 241.5,-333 378.5,-333 378.5,-305 241.5,-305"/>
<text text-anchor="start" x="249.5" y="-321.8" font-family="Helvetica,sans-Serif" font-size="9.00">de.flashpixx.rrd_antlr4.antlr.</text>
<text text-anchor="middle" x="310" y="-311.8" font-family="Helvetica,sans-Serif" font-size="9.00">IGrammarComplexElement.id</text>
</a>
</g>
</g>
<!-- Node1&#45;&gt;Node3 -->
<g id="edge2" class="edge"><title>Node1&#45;&gt;Node3</title>
<path fill="none" stroke="midnightblue" d="M155.411,-286.038C180.001,-291.315 208.153,-297.357 233.581,-302.814"/>
<polygon fill="midnightblue" stroke="midnightblue" points="233.036,-306.277 243.548,-304.953 234.505,-299.433 233.036,-306.277"/>
</g>
<!-- Node4 -->
<g id="node4" class="node"><title>Node4</title>
<g id="a_node4"><a xlink:href="../../d1/d8a/classde_1_1flashpixx_1_1rrd__antlr4_1_1CCommon.html#ad6447e8baa399bbbe95a99ce64373455" target="_top" xlink:title="returns the language depend string on any object ">
<polygon fill="none" stroke="black" points="247.5,-258 247.5,-286 372.5,-286 372.5,-258 247.5,-258"/>
<text text-anchor="start" x="255.5" y="-274.8" font-family="Helvetica,sans-Serif" font-size="9.00">de.flashpixx.rrd_antlr4.</text>
<text text-anchor="middle" x="310" y="-264.8" font-family="Helvetica,sans-Serif" font-size="9.00">CCommon.languagestring</text>
</a>
</g>
</g>
<!-- Node1&#45;&gt;Node4 -->
<g id="edge3" class="edge"><title>Node1&#45;&gt;Node4</title>
<path fill="none" stroke="midnightblue" d="M178.129,-272C197.775,-272 218.376,-272 237.268,-272"/>
<polygon fill="midnightblue" stroke="midnightblue" points="237.273,-275.5 247.273,-272 237.273,-268.5 237.273,-275.5"/>
</g>
<!-- Node5 -->
<g id="node5" class="node"><title>Node5</title>
<g id="a_node5"><a xlink:href="../../d5/dcc/classde_1_1flashpixx_1_1rrd__antlr4_1_1engine_1_1template_1_1IBaseTemplate.html#acc4ece554ebc5db2c72a71615af0022d" target="_top" xlink:title="create a hash of a link ">
<polygon fill="none" stroke="black" points="221,-211 221,-239 399,-239 399,-211 221,-211"/>
<text text-anchor="start" x="229" y="-227.8" font-family="Helvetica,sans-Serif" font-size="9.00">de.flashpixx.rrd_antlr4.engine.template.</text>
<text text-anchor="middle" x="310" y="-217.8" font-family="Helvetica,sans-Serif" font-size="9.00">IBaseTemplate.linkhash</text>
</a>
</g>
</g>
<!-- Node1&#45;&gt;Node5 -->
<g id="edge4" class="edge"><title>Node1&#45;&gt;Node5</title>
<path fill="none" stroke="midnightblue" d="M155.411,-257.962C180.001,-252.685 208.153,-246.643 233.581,-241.186"/>
<polygon fill="midnightblue" stroke="midnightblue" points="234.505,-244.567 243.548,-239.047 233.036,-237.723 234.505,-244.567"/>
</g>
<!-- Node6 -->
<g id="node6" class="node"><title>Node6</title>
<g id="a_node6"><a xlink:href="../../d5/dcc/classde_1_1flashpixx_1_1rrd__antlr4_1_1engine_1_1template_1_1IBaseTemplate.html#aba059762f4ecba4c0fa04758165dbf11" target="_top" xlink:title="calls the sub routines to format the lement ">
<polygon fill="none" stroke="black" points="221,-164 221,-192 399,-192 399,-164 221,-164"/>
<text text-anchor="start" x="229" y="-180.8" font-family="Helvetica,sans-Serif" font-size="9.00">de.flashpixx.rrd_antlr4.engine.template.</text>
<text text-anchor="middle" x="310" y="-170.8" font-family="Helvetica,sans-Serif" font-size="9.00">IBaseTemplate.map</text>
</a>
</g>
</g>
<!-- Node1&#45;&gt;Node6 -->
<g id="edge5" class="edge"><title>Node1&#45;&gt;Node6</title>
<path fill="none" stroke="midnightblue" d="M111.075,-257.782C135.073,-242.154 175.901,-217.248 214,-202 220.314,-199.473 226.972,-197.15 233.714,-195.029"/>
<polygon fill="midnightblue" stroke="midnightblue" points="235.042,-198.285 243.62,-192.066 233.036,-191.579 235.042,-198.285"/>
</g>
<!-- Node7 -->
<g id="node7" class="node"><title>Node7</title>
<g id="a_node7"><a xlink:href="../../d5/dcc/classde_1_1flashpixx_1_1rrd__antlr4_1_1engine_1_1template_1_1IBaseTemplate.html#a2197fdee7c3dfb376324cf4682029b59" target="_top" xlink:title="creates a non&#45;terminal ">
<polygon fill="none" stroke="black" points="442,-329 442,-357 620,-357 620,-329 442,-329"/>
<text text-anchor="start" x="450" y="-345.8" font-family="Helvetica,sans-Serif" font-size="9.00">de.flashpixx.rrd_antlr4.engine.template.</text>
<text text-anchor="middle" x="531" y="-335.8" font-family="Helvetica,sans-Serif" font-size="9.00">IBaseTemplate.nonterminal</text>
</a>
</g>
</g>
<!-- Node6&#45;&gt;Node7 -->
<g id="edge6" class="edge"><title>Node6&#45;&gt;Node7</title>
<path fill="none" stroke="midnightblue" d="M392.407,-192.104C397.332,-194.864 401.931,-198.133 406,-202 445.44,-239.476 402.914,-281.154 442,-319 443.493,-320.446 445.065,-321.806 446.702,-323.087"/>
<polygon fill="midnightblue" stroke="midnightblue" points="445.118,-326.236 455.387,-328.843 448.985,-320.401 445.118,-326.236"/>
</g>
<!-- Node8 -->
<g id="node8" class="node"><title>Node8</title>
<g id="a_node8"><a xlink:href="../../d5/dcc/classde_1_1flashpixx_1_1rrd__antlr4_1_1engine_1_1template_1_1IBaseTemplate.html#a644daf65240deb390d1b3b8715491f13" target="_top" xlink:title="creates a rule ">
<polygon fill="none" stroke="black" points="442,-282 442,-310 620,-310 620,-282 442,-282"/>
<text text-anchor="start" x="450" y="-298.8" font-family="Helvetica,sans-Serif" font-size="9.00">de.flashpixx.rrd_antlr4.engine.template.</text>
<text text-anchor="middle" x="531" y="-288.8" font-family="Helvetica,sans-Serif" font-size="9.00">IBaseTemplate.rule</text>
</a>
</g>
</g>
<!-- Node6&#45;&gt;Node8 -->
<g id="edge7" class="edge"><title>Node6&#45;&gt;Node8</title>
<path fill="none" stroke="midnightblue" d="M389.803,-192.042C395.585,-194.798 401.073,-198.083 406,-202 433.386,-223.769 414.82,-249.974 442,-272 444.099,-273.701 446.31,-275.282 448.607,-276.751"/>
<polygon fill="midnightblue" stroke="midnightblue" points="447.406,-280.088 457.848,-281.883 450.804,-273.968 447.406,-280.088"/>
</g>
<!-- Node9 -->
<g id="node9" class="node"><title>Node9</title>
<g id="a_node9"><a xlink:href="../../d5/dcc/classde_1_1flashpixx_1_1rrd__antlr4_1_1engine_1_1template_1_1IBaseTemplate.html#af9d688420b32b00be68a53432053dda2" target="_top" xlink:title="creates a terminal ">
<polygon fill="none" stroke="black" points="442,-235 442,-263 620,-263 620,-235 442,-235"/>
<text text-anchor="start" x="450" y="-251.8" font-family="Helvetica,sans-Serif" font-size="9.00">de.flashpixx.rrd_antlr4.engine.template.</text>
<text text-anchor="middle" x="531" y="-241.8" font-family="Helvetica,sans-Serif" font-size="9.00">IBaseTemplate.terminalvalue</text>
</a>
</g>
</g>
<!-- Node6&#45;&gt;Node9 -->
<g id="edge8" class="edge"><title>Node6&#45;&gt;Node9</title>
<path fill="none" stroke="midnightblue" d="M378.087,-192.061C387.622,-194.887 397.178,-198.187 406,-202 423.428,-209.533 424.643,-217.303 442,-225 447.472,-227.426 453.246,-229.659 459.114,-231.703"/>
<polygon fill="midnightblue" stroke="midnightblue" points="458.449,-235.169 469.041,-234.965 460.634,-228.519 458.449,-235.169"/>
</g>
<!-- Node10 -->
<g id="node10" class="node"><title>Node10</title>
<g id="a_node10"><a xlink:href="../../d5/dcc/classde_1_1flashpixx_1_1rrd__antlr4_1_1engine_1_1template_1_1IBaseTemplate.html#aed006de3401e84ff45301922a9ebd7f3" target="_top" xlink:title="creates a terminal ">
<polygon fill="none" stroke="black" points="442,-188 442,-216 620,-216 620,-188 442,-188"/>
<text text-anchor="start" x="450" y="-204.8" font-family="Helvetica,sans-Serif" font-size="9.00">de.flashpixx.rrd_antlr4.engine.template.</text>
<text text-anchor="middle" x="531" y="-194.8" font-family="Helvetica,sans-Serif" font-size="9.00">IBaseTemplate.terminal</text>
</a>
</g>
</g>
<!-- Node6&#45;&gt;Node10 -->
<g id="edge9" class="edge"><title>Node6&#45;&gt;Node10</title>
<path fill="none" stroke="midnightblue" d="M399.129,-187.658C409.757,-188.823 420.665,-190.018 431.431,-191.198"/>
<polygon fill="midnightblue" stroke="midnightblue" points="431.373,-194.712 441.695,-192.323 432.136,-187.754 431.373,-194.712"/>
</g>
<!-- Node11 -->
<g id="node11" class="node"><title>Node11</title>
<g id="a_node11"><a xlink:href="../../d5/dcc/classde_1_1flashpixx_1_1rrd__antlr4_1_1engine_1_1template_1_1IBaseTemplate.html#aad62be40b5226177829c66f72e638569" target="_top" xlink:title="creates a negation structure ">
<polygon fill="none" stroke="black" points="442,-141 442,-169 620,-169 620,-141 442,-141"/>
<text text-anchor="start" x="450" y="-157.8" font-family="Helvetica,sans-Serif" font-size="9.00">de.flashpixx.rrd_antlr4.engine.template.</text>
<text text-anchor="middle" x="531" y="-147.8" font-family="Helvetica,sans-Serif" font-size="9.00">IBaseTemplate.negation</text>
</a>
</g>
</g>
<!-- Node6&#45;&gt;Node11 -->
<g id="edge10" class="edge"><title>Node6&#45;&gt;Node11</title>
<path fill="none" stroke="midnightblue" d="M399.129,-168.744C409.757,-167.628 420.665,-166.483 431.431,-165.352"/>
<polygon fill="midnightblue" stroke="midnightblue" points="432.115,-168.799 441.695,-164.274 431.384,-161.838 432.115,-168.799"/>
</g>
<!-- Node12 -->
<g id="node12" class="node"><title>Node12</title>
<g id="a_node12"><a xlink:href="../../d5/dcc/classde_1_1flashpixx_1_1rrd__antlr4_1_1engine_1_1template_1_1IBaseTemplate.html#a68821bc9abb712354d06330676499b0d" target="_top" xlink:title="crates a grammer group ">
<polygon fill="none" stroke="black" points="442,-94 442,-122 620,-122 620,-94 442,-94"/>
<text text-anchor="start" x="450" y="-110.8" font-family="Helvetica,sans-Serif" font-size="9.00">de.flashpixx.rrd_antlr4.engine.template.</text>
<text text-anchor="middle" x="531" y="-100.8" font-family="Helvetica,sans-Serif" font-size="9.00">IBaseTemplate.group</text>
</a>
</g>
</g>
<!-- Node6&#45;&gt;Node12 -->
<g id="edge11" class="edge"><title>Node6&#45;&gt;Node12</title>
<path fill="none" stroke="midnightblue" d="M348.597,-163.995C374.655,-154.487 410.241,-141.893 442,-132 449.739,-129.589 457.902,-127.183 466.009,-124.876"/>
<polygon fill="midnightblue" stroke="midnightblue" points="467.156,-128.189 475.838,-122.117 465.264,-121.45 467.156,-128.189"/>
</g>
<!-- Node13 -->
<g id="node13" class="node"><title>Node13</title>
<g id="a_node13"><a xlink:href="../../d5/dcc/classde_1_1flashpixx_1_1rrd__antlr4_1_1engine_1_1template_1_1IBaseTemplate.html#a835ed841a393331edd830c5ed9b1c62d" target="_top" xlink:title="creates a grammar choice ">
<polygon fill="none" stroke="black" points="442,-47 442,-75 620,-75 620,-47 442,-47"/>
<text text-anchor="start" x="450" y="-63.8" font-family="Helvetica,sans-Serif" font-size="9.00">de.flashpixx.rrd_antlr4.engine.template.</text>
<text text-anchor="middle" x="531" y="-53.8" font-family="Helvetica,sans-Serif" font-size="9.00">IBaseTemplate.choice</text>
</a>
</g>
</g>
<!-- Node6&#45;&gt;Node13 -->
<g id="edge12" class="edge"><title>Node6&#45;&gt;Node13</title>
<path fill="none" stroke="midnightblue" d="M326.782,-163.953C350.289,-143.723 396.616,-106.466 442,-85 447.01,-82.6302 452.296,-80.4598 457.687,-78.4785"/>
<polygon fill="midnightblue" stroke="midnightblue" points="459.151,-81.6762 467.469,-75.1143 456.875,-75.0567 459.151,-81.6762"/>
</g>
<!-- Node14 -->
<g id="node14" class="node"><title>Node14</title>
<g id="a_node14"><a xlink:href="../../d5/dcc/classde_1_1flashpixx_1_1rrd__antlr4_1_1engine_1_1template_1_1IBaseTemplate.html#ada35faeaaf5646a4818d934aac5a6103" target="_top" xlink:title="creates a grammar sequence ">
<polygon fill="none" stroke="black" points="442,-0 442,-28 620,-28 620,-0 442,-0"/>
<text text-anchor="start" x="450" y="-16.8" font-family="Helvetica,sans-Serif" font-size="9.00">de.flashpixx.rrd_antlr4.engine.template.</text>
<text text-anchor="middle" x="531" y="-6.8" font-family="Helvetica,sans-Serif" font-size="9.00">IBaseTemplate.sequence</text>
</a>
</g>
</g>
<!-- Node6&#45;&gt;Node14 -->
<g id="edge13" class="edge"><title>Node6&#45;&gt;Node14</title>
<path fill="none" stroke="midnightblue" d="M320.3,-163.649C339.499,-135.198 386.408,-71.507 442,-38 445.662,-35.7928 449.53,-33.7843 453.521,-31.957"/>
<polygon fill="midnightblue" stroke="midnightblue" points="455.121,-35.0821 463.014,-28.0141 452.436,-28.6175 455.121,-35.0821"/>
</g>
</g>
</svg>
        <g id="navigator" transform="translate(0 0)" fill="#404254">
                <rect fill="#f2f5e9" fill-opacity="0.5" stroke="#606060" stroke-width=".5" x="0" y="0" width="60" height="60"/>
                <use id="zoomplus" xlink:href="#zoomPlus" x="17" y="9" onmousedown="handleZoom(evt,'in')"/>
                <use id="zoomminus" xlink:href="#zoomMin" x="42" y="9" onmousedown="handleZoom(evt,'out')"/>
                <use id="reset" xlink:href="#resetDef" x="30" y="36" onmousedown="handleReset()"/>
                <g id="arrowUp" xlink:href="#dirArrow" transform="translate(30 24)" onmousedown="handlePan(0,-1)">
                  <use xlink:href="#rim" fill="#404040">
                        <set attributeName="fill" to="#808080" begin="arrowUp.mouseover" end="arrowUp.mouseout"/>
                  </use>
                  <path fill="none" stroke="white" stroke-width="1.5" d="M0,-3.0v7 M-2.5,-0.5L0,-3.0L2.5,-0.5"/>
                </g>
                <g id="arrowRight" xlink:href="#dirArrow" transform="rotate(90) translate(36 -43)" onmousedown="handlePan(1,0)">
                  <use xlink:href="#rim" fill="#404040">
                        <set attributeName="fill" to="#808080" begin="arrowRight.mouseover" end="arrowRight.mouseout"/>
                  </use>
                  <path fill="none" stroke="white" stroke-width="1.5" d="M0,-3.0v7 M-2.5,-0.5L0,-3.0L2.5,-0.5"/>
                </g>
                <g id="arrowDown" xlink:href="#dirArrow" transform="rotate(180) translate(-30 -48)" onmousedown="handlePan(0,1)">
                  <use xlink:href="#rim" fill="#404040">
                        <set attributeName="fill" to="#808080" begin="arrowDown.mouseover" end="arrowDown.mouseout"/>
                  </use>
                  <path fill="none" stroke="white" stroke-width="1.5" d="M0,-3.0v7 M-2.5,-0.5L0,-3.0L2.5,-0.5"/>
                </g>
                <g id="arrowLeft" xlink:href="#dirArrow" transform="rotate(270) translate(-36 17)" onmousedown="handlePan(-1,0)">
                  <use xlink:href="#rim" fill="#404040">
                        <set attributeName="fill" to="#808080" begin="arrowLeft.mouseover" end="arrowLeft.mouseout"/>
                  </use>
                  <path fill="none" stroke="white" stroke-width="1.5" d="M0,-3.0v7 M-2.5,-0.5L0,-3.0L2.5,-0.5"/>
                </g>
        </g>
        <svg viewBox="0 0 15 15" width="100%" height="30px" preserveAspectRatio="xMaxYMin meet">
         <g id="arrow_out" transform="scale(0.3 0.3)">
          <a xlink:href="classde_1_1flashpixx_1_1rrd__antlr4_1_1engine_1_1template_1_1CHTML_aa7507dba1f5f25745319524e2514dbc0_cgraph_org.svg" target="_base">
           <rect id="button" ry="5" rx="5" y="6" x="6" height="38" width="38"
                fill="#f2f5e9" fill-opacity="0.5" stroke="#606060" stroke-width="1.0"/>
           <path id="arrow"
             d="M 11.500037,31.436501 C 11.940474,20.09759 22.043105,11.32322 32.158766,21.979434 L 37.068811,17.246167 C 37.068811,17.246167 37.088388,32 37.088388,32 L 22.160133,31.978069 C 22.160133,31.978069 26.997745,27.140456 26.997745,27.140456 C 18.528582,18.264221 13.291696,25.230495 11.500037,31.436501 z"
             style="fill:#404040;"/>
          </a>
         </g>
        </svg>
</svg>
