<?xml version="1.0" encoding="UTF-8" standalone="no"?>
<!DOCTYPE svg PUBLIC "-//W3C//DTD SVG 1.1//EN"
 "http://www.w3.org/Graphics/SVG/1.1/DTD/svg11.dtd">
<!-- Generated by graphviz version 2.36.0 (20140111.2315)
 -->
<!-- Title: de.flashpixx.rrd_antlr4.engine.template.CLaTeXSyntax.element Pages: 1 -->
<svg width="614pt" height="365pt"
 viewBox="0.00 0.00 614.00 365.00" xmlns="http://www.w3.org/2000/svg" xmlns:xlink="http://www.w3.org/1999/xlink">
<g id="graph0" class="graph" transform="scale(1 1) rotate(0) translate(4 361)">
<title>de.flashpixx.rrd_antlr4.engine.template.CLaTeXSyntax.element</title>
<!-- Node1 -->
<g id="node1" class="node"><title>Node1</title>
<polygon fill="#bfbfbf" stroke="black" points="0,-187 0,-215 178,-215 178,-187 0,-187"/>
<text text-anchor="start" x="8" y="-203.8" font-family="Helvetica,sans-Serif" font-size="9.00">de.flashpixx.rrd_antlr4.engine.template.</text>
<text text-anchor="middle" x="89" y="-193.8" font-family="Helvetica,sans-Serif" font-size="9.00">CLaTeXSyntax.element</text>
</g>
<!-- Node2 -->
<g id="node2" class="node"><title>Node2</title>
<g id="a_node2"><a xlink:href="../../df/ddb/interfacede_1_1flashpixx_1_1rrd__antlr4_1_1antlr_1_1IGrammarComplexElement.html#aeb2381bd8483a7b056d018c57690599e" target="_top" xlink:title="ID of the element. ">
<polygon fill="none" stroke="black" points="234.5,-211 234.5,-239 371.5,-239 371.5,-211 234.5,-211"/>
<text text-anchor="start" x="242.5" y="-227.8" font-family="Helvetica,sans-Serif" font-size="9.00">de.flashpixx.rrd_antlr4.antlr.</text>
<text text-anchor="middle" x="303" y="-217.8" font-family="Helvetica,sans-Serif" font-size="9.00">IGrammarComplexElement.id</text>
</a>
</g>
</g>
<!-- Node1&#45;&gt;Node2 -->
<g id="edge1" class="edge"><title>Node1&#45;&gt;Node2</title>
<path fill="none" stroke="midnightblue" d="M178.065,-210.97C193.317,-212.696 209.078,-214.481 224.037,-216.174"/>
<polygon fill="midnightblue" stroke="midnightblue" points="223.919,-219.683 234.249,-217.33 224.706,-212.727 223.919,-219.683"/>
</g>
<!-- Node3 -->
<g id="node3" class="node"><title>Node3</title>
<g id="a_node3"><a xlink:href="../../d5/dcc/classde_1_1flashpixx_1_1rrd__antlr4_1_1engine_1_1template_1_1IBaseTemplate.html#aba059762f4ecba4c0fa04758165dbf11" target="_top" xlink:title="calls the sub routines to format the lement ">
<polygon fill="none" stroke="black" points="214,-164 214,-192 392,-192 392,-164 214,-164"/>
<text text-anchor="start" x="222" y="-180.8" font-family="Helvetica,sans-Serif" font-size="9.00">de.flashpixx.rrd_antlr4.engine.template.</text>
<text text-anchor="middle" x="303" y="-170.8" font-family="Helvetica,sans-Serif" font-size="9.00">IBaseTemplate.map</text>
</a>
</g>
</g>
<!-- Node1&#45;&gt;Node3 -->
<g id="edge2" class="edge"><title>Node1&#45;&gt;Node3</title>
<path fill="none" stroke="midnightblue" d="M178.065,-191.446C186.569,-190.523 195.232,-189.583 203.825,-188.651"/>
<polygon fill="midnightblue" stroke="midnightblue" points="204.303,-192.12 213.868,-187.562 203.548,-185.161 204.303,-192.12"/>
</g>
<!-- Node4 -->
<g id="node4" class="node"><title>Node4</title>
<g id="a_node4"><a xlink:href="../../d5/dcc/classde_1_1flashpixx_1_1rrd__antlr4_1_1engine_1_1template_1_1IBaseTemplate.html#a2197fdee7c3dfb376324cf4682029b59" target="_top" xlink:title="creates a non&#45;terminal ">
<polygon fill="none" stroke="black" points="428,-329 428,-357 606,-357 606,-329 428,-329"/>
<text text-anchor="start" x="436" y="-345.8" font-family="Helvetica,sans-Serif" font-size="9.00">de.flashpixx.rrd_antlr4.engine.template.</text>
<text text-anchor="middle" x="517" y="-335.8" font-family="Helvetica,sans-Serif" font-size="9.00">IBaseTemplate.nonterminal</text>
</a>
</g>
</g>
<!-- Node3&#45;&gt;Node4 -->
<g id="edge3" class="edge"><title>Node3&#45;&gt;Node4</title>
<path fill="none" stroke="midnightblue" d="M378.613,-192.157C383.48,-194.895 388.018,-198.145 392,-202 431.086,-239.846 388.914,-281.154 428,-319 429.493,-320.446 431.065,-321.806 432.702,-323.087"/>
<polygon fill="midnightblue" stroke="midnightblue" points="431.118,-326.236 441.387,-328.843 434.985,-320.401 431.118,-326.236"/>
</g>
<!-- Node5 -->
<g id="node5" class="node"><title>Node5</title>
<g id="a_node5"><a xlink:href="../../d5/dcc/classde_1_1flashpixx_1_1rrd__antlr4_1_1engine_1_1template_1_1IBaseTemplate.html#a644daf65240deb390d1b3b8715491f13" target="_top" xlink:title="creates a rule ">
<polygon fill="none" stroke="black" points="428,-282 428,-310 606,-310 606,-282 428,-282"/>
<text text-anchor="start" x="436" y="-298.8" font-family="Helvetica,sans-Serif" font-size="9.00">de.flashpixx.rrd_antlr4.engine.template.</text>
<text text-anchor="middle" x="517" y="-288.8" font-family="Helvetica,sans-Serif" font-size="9.00">IBaseTemplate.rule</text>
</a>
</g>
</g>
<!-- Node3&#45;&gt;Node5 -->
<g id="edge4" class="edge"><title>Node3&#45;&gt;Node5</title>
<path fill="none" stroke="midnightblue" d="M376.152,-192.117C381.823,-194.851 387.202,-198.112 392,-202 419.18,-224.026 400.82,-249.974 428,-272 430.099,-273.701 432.31,-275.282 434.607,-276.751"/>
<polygon fill="midnightblue" stroke="midnightblue" points="433.406,-280.088 443.848,-281.883 436.804,-273.968 433.406,-280.088"/>
</g>
<!-- Node6 -->
<g id="node6" class="node"><title>Node6</title>
<g id="a_node6"><a xlink:href="../../d5/dcc/classde_1_1flashpixx_1_1rrd__antlr4_1_1engine_1_1template_1_1IBaseTemplate.html#af9d688420b32b00be68a53432053dda2" target="_top" xlink:title="creates a terminal ">
<polygon fill="none" stroke="black" points="428,-235 428,-263 606,-263 606,-235 428,-235"/>
<text text-anchor="start" x="436" y="-251.8" font-family="Helvetica,sans-Serif" font-size="9.00">de.flashpixx.rrd_antlr4.engine.template.</text>
<text text-anchor="middle" x="517" y="-241.8" font-family="Helvetica,sans-Serif" font-size="9.00">IBaseTemplate.terminalvalue</text>
</a>
</g>
</g>
<!-- Node3&#45;&gt;Node6 -->
<g id="edge5" class="edge"><title>Node3&#45;&gt;Node6</title>
<path fill="none" stroke="midnightblue" d="M364.959,-192.035C374.181,-194.896 383.459,-198.213 392,-202 409.357,-209.697 410.643,-217.303 428,-225 433.472,-227.426 439.246,-229.659 445.114,-231.703"/>
<polygon fill="midnightblue" stroke="midnightblue" points="444.449,-235.169 455.041,-234.965 446.634,-228.519 444.449,-235.169"/>
</g>
<!-- Node7 -->
<g id="node7" class="node"><title>Node7</title>
<g id="a_node7"><a xlink:href="../../d5/dcc/classde_1_1flashpixx_1_1rrd__antlr4_1_1engine_1_1template_1_1IBaseTemplate.html#aed006de3401e84ff45301922a9ebd7f3" target="_top" xlink:title="creates a terminal ">
<polygon fill="none" stroke="black" points="428,-188 428,-216 606,-216 606,-188 428,-188"/>
<text text-anchor="start" x="436" y="-204.8" font-family="Helvetica,sans-Serif" font-size="9.00">de.flashpixx.rrd_antlr4.engine.template.</text>
<text text-anchor="middle" x="517" y="-194.8" font-family="Helvetica,sans-Serif" font-size="9.00">IBaseTemplate.terminal</text>
</a>
</g>
</g>
<!-- Node3&#45;&gt;Node7 -->
<g id="edge6" class="edge"><title>Node3&#45;&gt;Node7</title>
<path fill="none" stroke="midnightblue" d="M392.065,-187.97C400.569,-188.932 409.232,-189.913 417.825,-190.886"/>
<polygon fill="midnightblue" stroke="midnightblue" points="417.537,-194.376 427.868,-192.023 418.325,-187.42 417.537,-194.376"/>
</g>
<!-- Node8 -->
<g id="node8" class="node"><title>Node8</title>
<g id="a_node8"><a xlink:href="../../d5/dcc/classde_1_1flashpixx_1_1rrd__antlr4_1_1engine_1_1template_1_1IBaseTemplate.html#aad62be40b5226177829c66f72e638569" target="_top" xlink:title="creates a negation structure ">
<polygon fill="none" stroke="black" points="428,-141 428,-169 606,-169 606,-141 428,-141"/>
<text text-anchor="start" x="436" y="-157.8" font-family="Helvetica,sans-Serif" font-size="9.00">de.flashpixx.rrd_antlr4.engine.template.</text>
<text text-anchor="middle" x="517" y="-147.8" font-family="Helvetica,sans-Serif" font-size="9.00">IBaseTemplate.negation</text>
</a>
</g>
</g>
<!-- Node3&#45;&gt;Node8 -->
<g id="edge7" class="edge"><title>Node3&#45;&gt;Node8</title>
<path fill="none" stroke="midnightblue" d="M392.065,-168.446C400.569,-167.523 409.232,-166.583 417.825,-165.651"/>
<polygon fill="midnightblue" stroke="midnightblue" points="418.303,-169.12 427.868,-164.562 417.548,-162.161 418.303,-169.12"/>
</g>
<!-- Node9 -->
<g id="node9" class="node"><title>Node9</title>
<g id="a_node9"><a xlink:href="../../d5/dcc/classde_1_1flashpixx_1_1rrd__antlr4_1_1engine_1_1template_1_1IBaseTemplate.html#a68821bc9abb712354d06330676499b0d" target="_top" xlink:title="crates a grammer group ">
<polygon fill="none" stroke="black" points="428,-94 428,-122 606,-122 606,-94 428,-94"/>
<text text-anchor="start" x="436" y="-110.8" font-family="Helvetica,sans-Serif" font-size="9.00">de.flashpixx.rrd_antlr4.engine.template.</text>
<text text-anchor="middle" x="517" y="-100.8" font-family="Helvetica,sans-Serif" font-size="9.00">IBaseTemplate.group</text>
</a>
</g>
</g>
<!-- Node3&#45;&gt;Node9 -->
<g id="edge8" class="edge"><title>Node3&#45;&gt;Node9</title>
<path fill="none" stroke="midnightblue" d="M339.252,-163.969C363.911,-154.39 397.722,-141.724 428,-132 435.611,-129.556 443.641,-127.143 451.63,-124.843"/>
<polygon fill="midnightblue" stroke="midnightblue" points="452.654,-128.191 461.323,-122.1 450.748,-121.455 452.654,-128.191"/>
</g>
<!-- Node10 -->
<g id="node10" class="node"><title>Node10</title>
<g id="a_node10"><a xlink:href="../../d5/dcc/classde_1_1flashpixx_1_1rrd__antlr4_1_1engine_1_1template_1_1IBaseTemplate.html#a835ed841a393331edd830c5ed9b1c62d" target="_top" xlink:title="creates a grammar choice ">
<polygon fill="none" stroke="black" points="428,-47 428,-75 606,-75 606,-47 428,-47"/>
<text text-anchor="start" x="436" y="-63.8" font-family="Helvetica,sans-Serif" font-size="9.00">de.flashpixx.rrd_antlr4.engine.template.</text>
<text text-anchor="middle" x="517" y="-53.8" font-family="Helvetica,sans-Serif" font-size="9.00">IBaseTemplate.choice</text>
</a>
</g>
</g>
<!-- Node3&#45;&gt;Node10 -->
<g id="edge9" class="edge"><title>Node3&#45;&gt;Node10</title>
<path fill="none" stroke="midnightblue" d="M318.792,-163.904C340.861,-143.613 384.488,-106.281 428,-85 432.89,-82.6084 438.053,-80.4263 443.329,-78.4406"/>
<polygon fill="midnightblue" stroke="midnightblue" points="444.635,-81.6916 452.91,-75.0757 442.315,-75.087 444.635,-81.6916"/>
</g>
<!-- Node11 -->
<g id="node11" class="node"><title>Node11</title>
<g id="a_node11"><a xlink:href="../../d5/dcc/classde_1_1flashpixx_1_1rrd__antlr4_1_1engine_1_1template_1_1IBaseTemplate.html#ada35faeaaf5646a4818d934aac5a6103" target="_top" xlink:title="creates a grammar sequence ">
<polygon fill="none" stroke="black" points="428,-0 428,-28 606,-28 606,-0 428,-0"/>
<text text-anchor="start" x="436" y="-16.8" font-family="Helvetica,sans-Serif" font-size="9.00">de.flashpixx.rrd_antlr4.engine.template.</text>
<text text-anchor="middle" x="517" y="-6.8" font-family="Helvetica,sans-Serif" font-size="9.00">IBaseTemplate.sequence</text>
</a>
</g>
</g>
<!-- Node3&#45;&gt;Node11 -->
<g id="edge10" class="edge"><title>Node3&#45;&gt;Node11</title>
<path fill="none" stroke="midnightblue" d="M312.607,-163.634C330.427,-135.158 374.226,-71.4214 428,-38 431.556,-35.79 435.316,-33.7805 439.2,-31.9537"/>
<polygon fill="midnightblue" stroke="midnightblue" points="440.62,-35.1528 448.449,-28.0142 437.878,-28.7126 440.62,-35.1528"/>
</g>
</g>
</svg>
