<?xml version="1.0" encoding="UTF-8" standalone="no"?>
<!DOCTYPE svg PUBLIC "-//W3C//DTD SVG 1.1//EN"
 "http://www.w3.org/Graphics/SVG/1.1/DTD/svg11.dtd">
<!-- Generated by graphviz version 2.36.0 (20140111.2315)
 -->
<!-- Title: de.flashpixx.rrd_antlr4.engine.template.CLaTeXSyntax.postprocess Pages: 1 -->
<svg width="414pt" height="130pt"
 viewBox="0.00 0.00 414.00 130.00" xmlns="http://www.w3.org/2000/svg" xmlns:xlink="http://www.w3.org/1999/xlink">
<g id="graph0" class="graph" transform="scale(1 1) rotate(0) translate(4 126)">
<title>de.flashpixx.rrd_antlr4.engine.template.CLaTeXSyntax.postprocess</title>
<!-- Node1 -->
<g id="node1" class="node"><title>Node1</title>
<polygon fill="#bfbfbf" stroke="black" points="0,-47 0,-75 178,-75 178,-47 0,-47"/>
<text text-anchor="start" x="8" y="-63.8" font-family="Helvetica,sans-Serif" font-size="9.00">de.flashpixx.rrd_antlr4.engine.template.</text>
<text text-anchor="middle" x="89" y="-53.8" font-family="Helvetica,sans-Serif" font-size="9.00">CLaTeXSyntax.postprocess</text>
</g>
<!-- Node2 -->
<g id="node2" class="node"><title>Node2</title>
<g id="a_node2"><a xlink:href="../../df/ddb/interfacede_1_1flashpixx_1_1rrd__antlr4_1_1antlr_1_1IGrammarComplexElement.html#aa73d20b5f90dd7499fd8b0e895107b05" target="_top" xlink:title="documentation of the element ">
<polygon fill="none" stroke="black" points="214.5,-94 214.5,-122 405.5,-122 405.5,-94 214.5,-94"/>
<text text-anchor="start" x="222.5" y="-110.8" font-family="Helvetica,sans-Serif" font-size="9.00">de.flashpixx.rrd_antlr4.antlr.</text>
<text text-anchor="middle" x="310" y="-100.8" font-family="Helvetica,sans-Serif" font-size="9.00">IGrammarComplexElement.documentation</text>
</a>
</g>
</g>
<!-- Node1&#45;&gt;Node2 -->
<g id="edge1" class="edge"><title>Node1&#45;&gt;Node2</title>
<path fill="none" stroke="midnightblue" d="M155.411,-75.0379C180.001,-80.3153 208.153,-86.3569 233.581,-91.8141"/>
<polygon fill="midnightblue" stroke="midnightblue" points="233.036,-95.277 243.548,-93.9533 234.505,-88.4328 233.036,-95.277"/>
</g>
<!-- Node3 -->
<g id="node3" class="node"><title>Node3</title>
<g id="a_node3"><a xlink:href="../../df/ddb/interfacede_1_1flashpixx_1_1rrd__antlr4_1_1antlr_1_1IGrammarComplexElement.html#aeb2381bd8483a7b056d018c57690599e" target="_top" xlink:title="ID of the element. ">
<polygon fill="none" stroke="black" points="241.5,-47 241.5,-75 378.5,-75 378.5,-47 241.5,-47"/>
<text text-anchor="start" x="249.5" y="-63.8" font-family="Helvetica,sans-Serif" font-size="9.00">de.flashpixx.rrd_antlr4.antlr.</text>
<text text-anchor="middle" x="310" y="-53.8" font-family="Helvetica,sans-Serif" font-size="9.00">IGrammarComplexElement.id</text>
</a>
</g>
</g>
<!-- Node1&#45;&gt;Node3 -->
<g id="edge2" class="edge"><title>Node1&#45;&gt;Node3</title>
<path fill="none" stroke="midnightblue" d="M178.129,-61C195.551,-61 213.723,-61 230.789,-61"/>
<polygon fill="midnightblue" stroke="midnightblue" points="231.255,-64.5001 241.255,-61 231.255,-57.5001 231.255,-64.5001"/>
</g>
<!-- Node4 -->
<g id="node4" class="node"><title>Node4</title>
<g id="a_node4"><a xlink:href="../../d1/d8a/classde_1_1flashpixx_1_1rrd__antlr4_1_1CCommon.html#ad6447e8baa399bbbe95a99ce64373455" target="_top" xlink:title="returns the language depend string on any object ">
<polygon fill="none" stroke="black" points="247.5,-0 247.5,-28 372.5,-28 372.5,-0 247.5,-0"/>
<text text-anchor="start" x="255.5" y="-16.8" font-family="Helvetica,sans-Serif" font-size="9.00">de.flashpixx.rrd_antlr4.</text>
<text text-anchor="middle" x="310" y="-6.8" font-family="Helvetica,sans-Serif" font-size="9.00">CCommon.languagestring</text>
</a>
</g>
</g>
<!-- Node1&#45;&gt;Node4 -->
<g id="edge3" class="edge"><title>Node1&#45;&gt;Node4</title>
<path fill="none" stroke="midnightblue" d="M155.411,-46.9621C181.227,-41.4215 210.97,-35.0385 237.364,-29.3739"/>
<polygon fill="midnightblue" stroke="midnightblue" points="238.258,-32.7618 247.301,-27.2413 236.789,-25.9176 238.258,-32.7618"/>
</g>
</g>
</svg>
