<?xml version="1.0" encoding="UTF-8" standalone="no"?>
<!DOCTYPE svg PUBLIC "-//W3C//DTD SVG 1.1//EN"
 "http://www.w3.org/Graphics/SVG/1.1/DTD/svg11.dtd">
<!-- Generated by graphviz version 2.36.0 (20140111.2315)
 -->
<!-- Title: de.flashpixx.rrd_antlr4.antlr.IGrammarSimpleElement&lt; T &gt; Pages: 1 -->
<svg width="150pt" height="388pt"
 viewBox="0.00 0.00 150.00 388.00" xmlns="http://www.w3.org/2000/svg" xmlns:xlink="http://www.w3.org/1999/xlink">
<g id="graph0" class="graph" transform="scale(1 1) rotate(0) translate(4 384)">
<title>de.flashpixx.rrd_antlr4.antlr.IGrammarSimpleElement&lt; T &gt;</title>
<!-- Node1 -->
<g id="node1" class="node"><title>Node1</title>
<polygon fill="#bfbfbf" stroke="black" points="1,-193 1,-267 141,-267 141,-193 1,-193"/>
<text text-anchor="start" x="9" y="-255.8" font-family="Helvetica,sans-Serif" font-size="9.00">de.flashpixx.rrd_antlr4.antlr.</text>
<text text-anchor="middle" x="71" y="-245.8" font-family="Helvetica,sans-Serif" font-size="9.00">IGrammarSimpleElement&lt; T &gt;</text>
<polyline fill="none" stroke="black" points="1,-239 141,-239 "/>
<text text-anchor="middle" x="71" y="-227.8" font-family="Helvetica,sans-Serif" font-size="9.00"> </text>
<polyline fill="none" stroke="black" points="1,-221 141,-221 "/>
<text text-anchor="start" x="9" y="-209.8" font-family="Helvetica,sans-Serif" font-size="9.00">+ get()</text>
<text text-anchor="start" x="9" y="-199.8" font-family="Helvetica,sans-Serif" font-size="9.00">+ isValueAssignableTo()</text>
</g>
<!-- Node3 -->
<g id="node3" class="node"><title>Node3</title>
<g id="a_node3"><a xlink:href="../../d3/d6a/classde_1_1flashpixx_1_1rrd__antlr4_1_1antlr_1_1CGrammarTerminalValue_3_01T_01_4.html" target="_top" xlink:title="stores any terminal value ">
<polygon fill="none" stroke="black" points="0,-1 0,-155 142,-155 142,-1 0,-1"/>
<text text-anchor="start" x="8" y="-143.8" font-family="Helvetica,sans-Serif" font-size="9.00">de.flashpixx.rrd_antlr4.antlr.</text>
<text text-anchor="middle" x="71" y="-133.8" font-family="Helvetica,sans-Serif" font-size="9.00">CGrammarTerminalValue&lt; T &gt;</text>
<polyline fill="none" stroke="black" points="0,-127 142,-127 "/>
<text text-anchor="start" x="8" y="-115.8" font-family="Helvetica,sans-Serif" font-size="9.00">&#45; m_cardinality</text>
<text text-anchor="start" x="8" y="-105.8" font-family="Helvetica,sans-Serif" font-size="9.00">&#45; m_value</text>
<polyline fill="none" stroke="black" points="0,-99 142,-99 "/>
<text text-anchor="start" x="8" y="-87.8" font-family="Helvetica,sans-Serif" font-size="9.00">+ CGrammarTerminalValue()</text>
<text text-anchor="start" x="8" y="-77.8" font-family="Helvetica,sans-Serif" font-size="9.00">+ CGrammarTerminalValue()</text>
<text text-anchor="start" x="8" y="-67.8" font-family="Helvetica,sans-Serif" font-size="9.00">+ cardinality()</text>
<text text-anchor="start" x="8" y="-57.8" font-family="Helvetica,sans-Serif" font-size="9.00">+ cardinality()</text>
<text text-anchor="start" x="8" y="-47.8" font-family="Helvetica,sans-Serif" font-size="9.00">+ equals()</text>
<text text-anchor="start" x="8" y="-37.8" font-family="Helvetica,sans-Serif" font-size="9.00">+ get()</text>
<text text-anchor="start" x="8" y="-27.8" font-family="Helvetica,sans-Serif" font-size="9.00">+ hashCode()</text>
<text text-anchor="start" x="8" y="-17.8" font-family="Helvetica,sans-Serif" font-size="9.00">+ isValueAssignableTo()</text>
<text text-anchor="start" x="8" y="-7.8" font-family="Helvetica,sans-Serif" font-size="9.00">+ toString()</text>
</a>
</g>
</g>
<!-- Node1&#45;&gt;Node3 -->
<g id="edge2" class="edge"><title>Node1&#45;&gt;Node3</title>
<path fill="none" stroke="midnightblue" d="M71,-182.676C71,-173.872 71,-164.448 71,-155.002"/>
<polygon fill="none" stroke="midnightblue" points="67.5001,-182.689 71,-192.689 74.5001,-182.689 67.5001,-182.689"/>
</g>
<!-- Node2 -->
<g id="node2" class="node"><title>Node2</title>
<g id="a_node2"><a xlink:href="../../dd/da7/interfacede_1_1flashpixx_1_1rrd__antlr4_1_1antlr_1_1IGrammarElement.html" target="_top" xlink:title="any grammar element ">
<polygon fill="none" stroke="black" points="6,-305 6,-379 136,-379 136,-305 6,-305"/>
<text text-anchor="start" x="14" y="-367.8" font-family="Helvetica,sans-Serif" font-size="9.00">de.flashpixx.rrd_antlr4.antlr.</text>
<text text-anchor="middle" x="71" y="-357.8" font-family="Helvetica,sans-Serif" font-size="9.00">IGrammarElement</text>
<polyline fill="none" stroke="black" points="6,-351 136,-351 "/>
<text text-anchor="middle" x="71" y="-339.8" font-family="Helvetica,sans-Serif" font-size="9.00"> </text>
<polyline fill="none" stroke="black" points="6,-333 136,-333 "/>
<text text-anchor="start" x="14" y="-321.8" font-family="Helvetica,sans-Serif" font-size="9.00">+ cardinality()</text>
<text text-anchor="start" x="14" y="-311.8" font-family="Helvetica,sans-Serif" font-size="9.00">+ cardinality()</text>
</a>
</g>
</g>
<!-- Node2&#45;&gt;Node1 -->
<g id="edge1" class="edge"><title>Node2&#45;&gt;Node1</title>
<path fill="none" stroke="midnightblue" d="M71,-294.752C71,-285.513 71,-275.935 71,-267.099"/>
<polygon fill="none" stroke="midnightblue" points="67.5001,-294.982 71,-304.982 74.5001,-294.982 67.5001,-294.982"/>
</g>
</g>
</svg>
